<svg width="117" height="32" viewBox="0 0 117 32" fill="none" xmlns="http://www.w3.org/2000/svg">
<path d="M2.0567 0H0V2.39999H2.0567V0Z" fill="#474747"/>
<path d="M2.0567 14.8H0V17.2H2.0567V14.8Z" fill="#474747"/>
<path d="M2.0567 29.5H0V31.9H2.0567V29.5Z" fill="#474747"/>
<path d="M13.4545 0H11.3977V2.39999H13.4545V0Z" fill="#474747"/>
<path d="M13.4545 14.8H11.3977V17.2H13.4545V14.8Z" fill="#474747"/>
<path d="M13.4545 29.5H11.3977V31.9H13.4545V29.5Z" fill="#474747"/>
<path d="M24.9378 0H22.8811V2.39999H24.9378V0Z" fill="#474747"/>
<path d="M24.9378 14.8H22.8811V17.2H24.9378V14.8Z" fill="#474747"/>
<path d="M24.9378 29.5H22.8811V31.9H24.9378V29.5Z" fill="#474747"/>
<path d="M36.3356 0H34.2788V2.39999H36.3356V0Z" fill="#474747"/>
<path d="M36.3356 14.8H34.2788V17.2H36.3356V14.8Z" fill="#474747"/>
<path d="M36.3356 29.5H34.2788V31.9H36.3356V29.5Z" fill="#474747"/>
<path d="M47.7332 0H45.6765V2.39999H47.7332V0Z" fill="#474747"/>
<path d="M47.7332 14.8H45.6765V17.2H47.7332V14.8Z" fill="#474747"/>
<path d="M47.7332 29.5H45.6765V31.9H47.7332V29.5Z" fill="#474747"/>
<path d="M59.2167 0H57.1599V2.39999H59.2167V0Z" fill="#474747"/>
<path d="M59.2167 14.8H57.1599V17.2H59.2167V14.8Z" fill="#474747"/>
<path d="M59.2167 29.5H57.1599V31.9H59.2167V29.5Z" fill="#474747"/>
<path d="M70.6143 0H68.5576V2.39999H70.6143V0Z" fill="#474747"/>
<path d="M70.6143 14.8H68.5576V17.2H70.6143V14.8Z" fill="#474747"/>
<path d="M70.6143 29.5H68.5576V31.9H70.6143V29.5Z" fill="#474747"/>
<path d="M82.012 0H79.9553V2.39999H82.012V0Z" fill="#474747"/>
<path d="M82.012 14.8H79.9553V17.2H82.012V14.8Z" fill="#474747"/>
<path d="M82.012 29.5H79.9553V31.9H82.012V29.5Z" fill="#474747"/>
<path d="M93.4957 0H91.439V2.39999H93.4957V0Z" fill="#474747"/>
<path d="M93.4957 14.8H91.439V17.2H93.4957V14.8Z" fill="#474747"/>
<path d="M93.4957 29.5H91.439V31.9H93.4957V29.5Z" fill="#474747"/>
<path d="M104.893 0H102.836V2.39999H104.893V0Z" fill="#474747"/>
<path d="M104.893 14.8H102.836V17.2H104.893V14.8Z" fill="#474747"/>
<path d="M104.893 29.5H102.836V31.9H104.893V29.5Z" fill="#474747"/>
<path d="M116.377 0H114.32V2.39999H116.377V0Z" fill="#474747"/>
<path d="M116.377 14.8H114.32V17.2H116.377V14.8Z" fill="#474747"/>
<path d="M116.377 29.5H114.32V31.9H116.377V29.5Z" fill="#474747"/>
</svg>
