<svg width="134" height="26" viewBox="0 0 134 26" fill="none" xmlns="http://www.w3.org/2000/svg">
<g clip-path="url(#clip0_1264_1255)">
<path fill-rule="evenodd" clip-rule="evenodd" d="M33.2421 2.47159C34.5764 2.47003 35.8967 2.74613 37.1209 3.28269C38.345 3.81926 39.4468 4.6048 40.3576 5.59042L42.0885 3.84319C40.6228 2.28319 38.7785 1.13842 36.7392 0.522828C34.6998 -0.0927623 32.5365 -0.157699 30.4645 0.334481C28.3926 0.826661 26.4844 1.85879 24.9297 3.32814C23.375 4.79748 22.2282 6.65279 21.6034 8.70939C20.9785 10.766 20.8975 12.9521 21.3683 15.0503C21.839 17.1484 22.8452 19.0852 24.2867 20.6681C25.7282 22.251 27.5547 23.4246 29.5843 24.0722C31.614 24.7198 33.776 24.8187 35.8553 24.3591V24.3325H35.9728C38.1879 23.8167 40.2159 22.6842 41.8272 21.0634L40.0963 19.3162C38.9594 20.4561 37.5621 21.2953 36.028 21.7595C34.4939 22.2237 32.8703 22.2987 31.3008 21.9777C29.7312 21.6567 28.2641 20.9497 27.0292 19.9193C25.7942 18.8888 24.8295 17.5666 24.2204 16.0696C23.6113 14.5726 23.3765 12.9469 23.5367 11.3364C23.697 9.72584 24.2475 8.18003 25.1394 6.83568C26.0313 5.49133 27.2372 4.38986 28.6505 3.62869C30.0637 2.86752 31.6408 2.4701 33.2421 2.47159ZM33.2421 18.5165C34.8577 18.5219 36.4095 17.8796 37.5574 16.7305L39.202 18.3905C38.0073 19.5893 36.4856 20.4001 34.8319 20.719C33.1783 21.0378 31.4681 20.8502 29.9207 20.1801C28.3732 19.51 27.0591 18.388 26.1466 16.958C25.2342 15.528 24.7651 13.855 24.7994 12.1537C24.8338 10.4524 25.37 8.80023 26.3394 7.40901C27.3088 6.01779 28.6672 4.95094 30.2404 4.34523C31.8136 3.73952 33.5299 3.62256 35.1693 4.00935C36.8087 4.39613 38.2964 5.26903 39.4418 6.51613C38.8808 7.08319 38.3326 7.63733 37.7972 8.17854C37.1139 7.41125 36.2518 6.82874 35.2891 6.48399C34.3264 6.13924 33.2938 6.04317 32.285 6.20452C31.2763 6.36587 30.3234 6.77952 29.5131 7.40787C28.7027 8.03621 28.0606 8.85933 27.6451 9.80238C27.2296 10.7454 27.0538 11.7785 27.1338 12.8077C27.2139 13.8369 27.5471 14.8295 28.1032 15.6954C28.6594 16.5612 29.4208 17.2729 30.3183 17.7656C31.2158 18.2583 32.2208 18.5164 33.2421 18.5165Z" fill="#FBAB1B"/>
<path fill-rule="evenodd" clip-rule="evenodd" d="M67.1677 0.583984L59.2012 10.3355L58.5994 9.58183L59.0669 9.01235L59.0957 8.976L59.158 8.89845L59.1964 8.85483L59.2515 8.78455L59.2971 8.73124L59.3474 8.67066L59.3978 8.60522L59.4409 8.55434L59.5009 8.48164L59.5344 8.43801L59.6039 8.35562L59.6303 8.32169L59.707 8.22961L59.7262 8.20538L59.8101 8.10359L59.8221 8.08663L59.9132 7.97516L60.0115 7.85641L60.105 7.74009L60.1913 7.63347L60.2105 7.61166L60.2896 7.5123L60.316 7.4808L60.3879 7.39113L60.4238 7.34994L60.4886 7.26997L60.5293 7.21908L60.5869 7.1488L60.6372 7.08579L60.6876 7.02521L60.7475 6.95493L60.7882 6.90162L60.8554 6.82165L60.8889 6.77803L60.9657 6.68594L60.992 6.65444L61.0759 6.55266L61.0927 6.53085L61.1862 6.41695V6.40484L61.2869 6.28125L61.39 6.15523L61.4859 6.03649L61.5003 6.01953L61.5914 5.90805L61.613 5.8814L61.6969 5.78204L61.728 5.74327L61.8023 5.65118L61.8407 5.60271L61.9078 5.52274L61.9558 5.46216L62.0133 5.39188L62.0709 5.32161L62.1188 5.26102L62.1859 5.18105L62.2267 5.13016L62.301 5.03808L62.3346 4.9993L62.4185 4.89752L62.4424 4.86602L62.5359 4.75212L62.5503 4.73274L62.6534 4.60915L62.7637 4.47586L62.874 4.34258V4.33046L62.9747 4.20929L62.9939 4.18506L63.085 4.07359L63.1137 4.03724L63.1952 3.93546L63.2336 3.88941L63.3079 3.79975L63.3535 3.74159L63.4206 3.66162L63.4757 3.59377L63.5333 3.52349L63.598 3.44352L63.6483 3.38294L63.7203 3.29327L63.761 3.24481L63.8449 3.14303L63.8761 3.10425L63.9696 2.99036L63.9912 2.9637L64.0919 2.83769L64.1062 2.82315L64.2189 2.68502L64.3364 2.54204L64.4491 2.40391L64.4635 2.38695L64.5641 2.26093L64.5905 2.23185L64.684 2.11796L64.7176 2.07676L64.8015 1.97256L64.8446 1.91924L64.9213 1.82716L64.9741 1.76173L65.0388 1.67933L65.1035 1.60421L65.1587 1.53393L65.233 1.44427L65.281 1.38611L65.3625 1.28433L65.4008 1.23829L65.4943 1.12439L65.5231 1.09046L65.6238 0.964448L65.6454 0.940215L65.758 0.802085V0.789968L65.8803 0.639721H62.7637L62.6726 0.751194L62.5911 0.850551L62.5743 0.872361L62.5 0.962025L62.4736 0.993528L62.4113 1.07107L62.3753 1.11469L62.3202 1.18255L62.277 1.23586L62.2315 1.2916L62.1787 1.35703L62.1404 1.40065L62.0804 1.47577L62.0517 1.51212L61.9822 1.59694L61.963 1.62117L61.8839 1.71568L61.7975 1.82231L61.7088 1.93136L61.6297 2.03072L61.613 2.0501L61.541 2.13734L61.5171 2.16642L61.4547 2.24397L61.4212 2.28517L61.366 2.3506L61.3253 2.40149L61.2797 2.45722L61.2294 2.51781L61.1934 2.56385L61.1359 2.63413L61.1071 2.67048L61.04 2.75045L61.0208 2.77468L60.9465 2.86677L60.865 2.96855L60.7787 3.07275L60.6971 3.17211L60.6852 3.18665L60.6132 3.27389L60.5917 3.30054L60.5293 3.37809L60.4982 3.41444L60.4454 3.48229L60.4071 3.52834L60.3615 3.58407L60.3136 3.63981L60.2776 3.68585L60.2225 3.75371L60.1937 3.79006L60.1314 3.86518L60.1098 3.89184L60.0403 3.97665L60.0283 3.99362L59.9492 4.08813L59.8677 4.18991L59.7885 4.28684V4.29896L59.7166 4.3862L59.6974 4.41043L59.6351 4.48555L59.6087 4.51948L59.5536 4.58491L59.5176 4.62853L59.4721 4.68427L59.4289 4.73758L59.3906 4.78363L59.3402 4.84663L59.3115 4.88298L59.2515 4.95568L59.2299 4.98234L59.1652 5.06231L59.1508 5.07927L59.0765 5.17136L58.9974 5.26829L58.9207 5.3628V5.37492L58.8512 5.45974L58.8344 5.48155L58.772 5.55667L58.7481 5.58575L58.6929 5.6536L58.6618 5.69238L58.6138 5.74811L58.5755 5.799L58.5371 5.84505L58.4892 5.90321L58.458 5.93956L58.4028 6.00741L58.3813 6.03407L58.3189 6.11161L58.3046 6.12858L58.2326 6.21582L58.1559 6.31033L58.0792 6.40484L58.0097 6.48965L57.9953 6.50662L57.8586 6.67625L57.8275 6.7126L57.7819 6.76834L57.746 6.81438L57.7076 6.86042L57.6621 6.91616L57.6309 6.95251L57.5805 7.01552L57.5566 7.0446L57.0579 7.65043L51.4264 0.583984H48.0174L55.3342 9.76358L56.8757 11.7022L57.4751 12.4535L59.1724 14.5836L66.9519 24.3399H70.361L60.8937 12.4656L70.6008 0.591254L67.1677 0.583984ZM45.3107 0.583984H46.8187L54.73 10.5051L56.2716 12.4438L56.8709 13.1974L58.5683 15.3276L65.7604 24.3399H62.5144L56.9285 17.3268L51.2035 24.3327H47.7632L55.2287 15.1967L54.6294 14.443L46.5478 24.3327H43.4312L44.1743 23.4239C45.7111 21.5458 48.3961 18.2574 53.0902 12.5189L44.3517 1.55332L43.5798 0.583984H45.3107ZM56.9261 17.3268L56.4634 16.7428L56.9285 17.3268H56.9261Z" fill="#EF3833"/>
<path d="M19.1096 0.583984H0V3.29327H19.1096V0.583984Z" fill="#3E84F8"/>
<path d="M19.1096 21.623H0V24.3323H19.1096V21.623Z" fill="#3E84F8"/>
<path fill-rule="evenodd" clip-rule="evenodd" d="M0 4.27734H19.1096V6.6304H5.99347V9.49721H19.1096V11.9666H0V4.27734ZM4 7H3V10H4V7Z" fill="#3E84F8"/>
<path fill-rule="evenodd" clip-rule="evenodd" d="M0 12.9429H19.1096V15.2959H5.99347V18.1627H19.1096V20.6321H0V12.9429ZM4 15H3V18H4V15Z" fill="#3E84F8"/>
</g>
<path d="M84.9497 9.2294H81.3981V10.6546H84.6583V11.8203H81.3981V13.546H85.1137V14.7526H80.0276V8.04098H84.9497V9.2294Z" fill="white"/>
<path d="M88.852 9.67108C89.365 9.67108 89.7839 9.80616 90.1087 10.0763C90.4365 10.3435 90.6004 10.7882 90.6004 11.4105V14.7526H89.2709V11.7337C89.2709 11.4727 89.236 11.2723 89.1661 11.1327C89.0386 10.8777 88.7958 10.7502 88.4376 10.7502C87.9975 10.7502 87.6954 10.9369 87.5315 11.3103C87.4465 11.5076 87.404 11.7595 87.404 12.0661V14.7526H86.1108V9.79857H87.363V10.5226C87.53 10.2676 87.6878 10.0839 87.8366 9.9716C88.1037 9.77125 88.4422 9.67108 88.852 9.67108Z" fill="white"/>
<path d="M93.9335 13.6871C94.2371 13.6871 94.4936 13.5733 94.703 13.3456C94.9125 13.1149 95.0172 12.7491 95.0172 12.2483C95.0172 11.7778 94.917 11.4196 94.7167 11.1737C94.5194 10.9278 94.2538 10.8049 93.9198 10.8049C93.4645 10.8049 93.1503 11.0189 92.9773 11.4469C92.8862 11.6746 92.8407 11.9553 92.8407 12.2893C92.8407 12.5776 92.8893 12.8341 92.9864 13.0588C93.1625 13.4777 93.4782 13.6871 93.9335 13.6871ZM93.6102 9.67108C93.8591 9.67108 94.0762 9.70902 94.2613 9.78491C94.577 9.91544 94.832 10.1553 95.0263 10.5043V9.78947H96.2876V14.4976C96.2876 15.1381 96.1798 15.6208 95.9643 15.9456C95.594 16.5041 94.8836 16.7834 93.8333 16.7834C93.1989 16.7834 92.6813 16.6589 92.2806 16.41C91.8799 16.1611 91.6583 15.7893 91.6158 15.2945H93.0274C93.0638 15.4462 93.123 15.5555 93.205 15.6223C93.3446 15.7407 93.5799 15.7999 93.9107 15.7999C94.3782 15.7999 94.6909 15.6436 94.8487 15.3309C94.9519 15.1305 95.0035 14.7936 95.0035 14.32V14.0013C94.8791 14.2138 94.7455 14.3732 94.6028 14.4794C94.3448 14.6767 94.0094 14.7754 93.5966 14.7754C92.9591 14.7754 92.4491 14.5523 92.0666 14.106C91.6872 13.6568 91.4975 13.0497 91.4975 12.2847C91.4975 11.5471 91.6811 10.9278 92.0484 10.4269C92.4157 9.92303 92.9363 9.67108 93.6102 9.67108Z" fill="white"/>
<path d="M98.8375 9.19753H97.5215V8H98.8375V9.19753ZM97.5215 9.78947H98.8375V14.7526H97.5215V9.78947Z" fill="white"/>
<path d="M102.849 9.67108C103.362 9.67108 103.781 9.80616 104.106 10.0763C104.434 10.3435 104.597 10.7882 104.597 11.4105V14.7526H103.268V11.7337C103.268 11.4727 103.233 11.2723 103.163 11.1327C103.036 10.8777 102.793 10.7502 102.435 10.7502C101.994 10.7502 101.692 10.9369 101.528 11.3103C101.443 11.5076 101.401 11.7595 101.401 12.0661V14.7526H100.108V9.79857H101.36V10.5226C101.527 10.2676 101.685 10.0839 101.834 9.9716C102.101 9.77125 102.439 9.67108 102.849 9.67108Z" fill="white"/>
<path d="M107.757 10.7275C107.457 10.7275 107.223 10.8216 107.056 11.0098C106.892 11.198 106.789 11.453 106.747 11.7747H108.764C108.743 11.4317 108.638 11.1722 108.45 10.9961C108.264 10.817 108.034 10.7275 107.757 10.7275ZM107.757 9.65742C108.17 9.65742 108.542 9.73483 108.873 9.88964C109.204 10.0445 109.477 10.2888 109.693 10.6227C109.887 10.9172 110.013 11.2587 110.071 11.6472C110.104 11.8749 110.118 12.2027 110.112 12.6308H106.715C106.733 13.1286 106.889 13.4777 107.184 13.678C107.363 13.8025 107.578 13.8647 107.83 13.8647C108.097 13.8647 108.314 13.7888 108.481 13.637C108.573 13.5551 108.653 13.4413 108.723 13.2955H110.048C110.014 13.59 109.861 13.889 109.588 14.1926C109.163 14.6752 108.568 14.9165 107.803 14.9165C107.172 14.9165 106.615 14.7132 106.132 14.3064C105.649 13.8996 105.408 13.2379 105.408 12.3211C105.408 11.4621 105.625 10.8033 106.059 10.345C106.496 9.8866 107.062 9.65742 107.757 9.65742Z" fill="white"/>
<path d="M112.948 10.7275C112.648 10.7275 112.414 10.8216 112.247 11.0098C112.083 11.198 111.98 11.453 111.937 11.7747H113.955C113.933 11.4317 113.829 11.1722 113.64 10.9961C113.455 10.817 113.225 10.7275 112.948 10.7275ZM112.948 9.65742C113.361 9.65742 113.733 9.73483 114.064 9.88964C114.395 10.0445 114.668 10.2888 114.883 10.6227C115.078 10.9172 115.204 11.2587 115.261 11.6472C115.295 11.8749 115.308 12.2027 115.302 12.6308H111.906C111.924 13.1286 112.08 13.4777 112.375 13.678C112.554 13.8025 112.769 13.8647 113.021 13.8647C113.288 13.8647 113.505 13.7888 113.672 13.637C113.763 13.5551 113.844 13.4413 113.914 13.2955H115.239C115.205 13.59 115.052 13.889 114.779 14.1926C114.354 14.6752 113.759 14.9165 112.994 14.9165C112.362 14.9165 111.805 14.7132 111.323 14.3064C110.84 13.8996 110.599 13.2379 110.599 12.3211C110.599 11.4621 110.816 10.8033 111.25 10.345C111.687 9.8866 112.253 9.65742 112.948 9.65742Z" fill="white"/>
<path d="M118.877 9.67108C118.901 9.67108 118.921 9.6726 118.936 9.67563C118.954 9.67563 118.992 9.67715 119.05 9.68019V11.0098C118.968 11.0007 118.895 10.9946 118.831 10.9915C118.767 10.9885 118.716 10.987 118.676 10.987C118.154 10.987 117.804 11.157 117.625 11.497C117.524 11.6882 117.474 11.9827 117.474 12.3803V14.7526H116.167V9.78947H117.406V10.6546C117.606 10.3237 117.781 10.0976 117.93 9.97615C118.172 9.77277 118.488 9.67108 118.877 9.67108Z" fill="white"/>
<path d="M121.149 9.19753H119.833V8H121.149V9.19753ZM119.833 9.78947H121.149V14.7526H119.833V9.78947Z" fill="white"/>
<path d="M125.16 9.67108C125.673 9.67108 126.092 9.80616 126.417 10.0763C126.745 10.3435 126.909 10.7882 126.909 11.4105V14.7526H125.579V11.7337C125.579 11.4727 125.544 11.2723 125.475 11.1327C125.347 10.8777 125.104 10.7502 124.746 10.7502C124.306 10.7502 124.004 10.9369 123.84 11.3103C123.755 11.5076 123.712 11.7595 123.712 12.0661V14.7526H122.419V9.79857H123.671V10.5226C123.838 10.2676 123.996 10.0839 124.145 9.9716C124.412 9.77125 124.751 9.67108 125.16 9.67108Z" fill="white"/>
<path d="M130.242 13.6871C130.545 13.6871 130.802 13.5733 131.011 13.3456C131.221 13.1149 131.326 12.7491 131.326 12.2483C131.326 11.7778 131.225 11.4196 131.025 11.1737C130.828 10.9278 130.562 10.8049 130.228 10.8049C129.773 10.8049 129.459 11.0189 129.286 11.4469C129.195 11.6746 129.149 11.9553 129.149 12.2893C129.149 12.5776 129.198 12.8341 129.295 13.0588C129.471 13.4777 129.787 13.6871 130.242 13.6871ZM129.919 9.67108C130.168 9.67108 130.385 9.70902 130.57 9.78491C130.885 9.91544 131.14 10.1553 131.335 10.5043V9.78947H132.596V14.4976C132.596 15.1381 132.488 15.6208 132.273 15.9456C131.902 16.5041 131.192 16.7834 130.142 16.7834C129.507 16.7834 128.99 16.6589 128.589 16.41C128.188 16.1611 127.967 15.7893 127.924 15.2945H129.336C129.372 15.4462 129.431 15.5555 129.513 15.6223C129.653 15.7407 129.888 15.7999 130.219 15.7999C130.687 15.7999 130.999 15.6436 131.157 15.3309C131.26 15.1305 131.312 14.7936 131.312 14.32V14.0013C131.187 14.2138 131.054 14.3732 130.911 14.4794C130.653 14.6767 130.318 14.7754 129.905 14.7754C129.267 14.7754 128.757 14.5523 128.375 14.106C127.996 13.6568 127.806 13.0497 127.806 12.2847C127.806 11.5471 127.99 10.9278 128.357 10.4269C128.724 9.92303 129.245 9.67108 129.919 9.67108Z" fill="white"/>
<path d="M79.167 20.1106C79.167 18.9389 79.4812 18.0358 80.1095 17.4014C80.6559 16.8489 81.3511 16.5727 82.195 16.5727C83.3242 16.5727 84.1499 16.943 84.672 17.6837C84.9604 18.0995 85.1152 18.5169 85.1364 18.9358H83.734C83.6429 18.6141 83.5261 18.3712 83.3834 18.2073C83.1284 17.9159 82.7505 17.7702 82.2496 17.7702C81.7396 17.7702 81.3374 17.9766 81.043 18.3894C80.7485 18.7992 80.6013 19.3806 80.6013 20.1334C80.6013 20.8862 80.7561 21.4508 81.0657 21.8272C81.3784 22.2006 81.7745 22.3873 82.2542 22.3873C82.7459 22.3873 83.1208 22.2264 83.3788 21.9046C83.5215 21.7316 83.6399 21.4721 83.734 21.126H85.1228C85.0013 21.8576 84.6902 22.4525 84.1893 22.9109C83.6915 23.3693 83.0525 23.5985 82.2724 23.5985C81.3071 23.5985 80.5482 23.2888 79.9957 22.6696C79.4432 22.0473 79.167 21.1943 79.167 20.1106Z" fill="white"/>
<path d="M88.8292 20.9985C88.7472 21.0501 88.6638 21.0926 88.5788 21.126C88.4968 21.1564 88.383 21.1852 88.2373 21.2125L87.9458 21.2672C87.6726 21.3157 87.4769 21.3749 87.3585 21.4447C87.1581 21.5631 87.0579 21.7468 87.0579 21.9957C87.0579 22.2173 87.1187 22.3782 87.2401 22.4783C87.3645 22.5755 87.5148 22.6241 87.6909 22.6241C87.9701 22.6241 88.2266 22.5421 88.4604 22.3782C88.6971 22.2143 88.8201 21.9152 88.8292 21.4812V20.9985ZM88.0415 20.3929C88.2813 20.3626 88.4528 20.3246 88.556 20.2791C88.7412 20.2002 88.8337 20.0772 88.8337 19.9103C88.8337 19.7069 88.7624 19.5672 88.6197 19.4913C88.4801 19.4124 88.2737 19.373 88.0005 19.373C87.6939 19.373 87.4769 19.4489 87.3494 19.6006C87.2583 19.7129 87.1976 19.8647 87.1672 20.056H85.9151C85.9424 19.6219 86.0638 19.2652 86.2793 18.9859C86.6223 18.5488 87.2112 18.3302 88.046 18.3302C88.5894 18.3302 89.072 18.438 89.494 18.6535C89.9159 18.8691 90.1269 19.2758 90.1269 19.8738V22.1505C90.1269 22.3084 90.1299 22.4996 90.136 22.7242C90.1451 22.8942 90.1709 23.0096 90.2134 23.0703C90.2559 23.131 90.3197 23.1811 90.4047 23.2205V23.4118H88.9931C88.9537 23.3116 88.9263 23.2175 88.9112 23.1295C88.896 23.0414 88.8838 22.9413 88.8747 22.829C88.6956 23.0232 88.4892 23.1887 88.2555 23.3253C87.9762 23.4862 87.6605 23.5666 87.3084 23.5666C86.8591 23.5666 86.4873 23.4391 86.1928 23.1841C85.9014 22.9261 85.7557 22.5618 85.7557 22.0913C85.7557 21.4812 85.9909 21.0395 86.4615 20.7663C86.7195 20.6175 87.0989 20.5113 87.5998 20.4476L88.0415 20.3929Z" fill="white"/>
<path d="M93.979 18.3302C94.0033 18.3302 94.023 18.3318 94.0382 18.3348C94.0564 18.3348 94.0944 18.3363 94.1521 18.3394V19.6689C94.0701 19.6598 93.9972 19.6538 93.9335 19.6507C93.8698 19.6477 93.8181 19.6462 93.7787 19.6462C93.2566 19.6462 92.906 19.8162 92.7269 20.1561C92.6267 20.3474 92.5766 20.6418 92.5766 21.0395V23.4118H91.2698V18.4486H92.5083V19.3138C92.7086 18.9829 92.8832 18.7567 93.0319 18.6353C93.2748 18.4319 93.5905 18.3302 93.979 18.3302Z" fill="white"/>
<path d="M96.875 19.3866C96.5744 19.3866 96.3407 19.4807 96.1737 19.6689C96.0098 19.8571 95.9066 20.1121 95.8641 20.4339H97.8813C97.86 20.0909 97.7553 19.8313 97.5671 19.6553C97.3819 19.4762 97.1512 19.3866 96.875 19.3866ZM96.875 18.3166C97.2878 18.3166 97.6597 18.394 97.9905 18.5488C98.3214 18.7036 98.5946 18.948 98.8101 19.2819C99.0044 19.5763 99.1304 19.9178 99.1881 20.3064C99.2215 20.5341 99.2351 20.8619 99.229 21.2899H95.8322C95.8505 21.7878 96.0068 22.1368 96.3012 22.3372C96.4803 22.4616 96.6959 22.5239 96.9478 22.5239C97.2149 22.5239 97.432 22.448 97.5989 22.2962C97.69 22.2143 97.7705 22.1004 97.8403 21.9547H99.1653C99.1319 22.2492 98.9786 22.5482 98.7054 22.8517C98.2804 23.3344 97.6855 23.5757 96.9205 23.5757C96.2891 23.5757 95.7321 23.3723 95.2494 22.9656C94.7668 22.5588 94.5254 21.897 94.5254 20.9803C94.5254 20.1212 94.7425 19.4625 95.1766 19.0041C95.6137 18.5458 96.1798 18.3166 96.875 18.3166Z" fill="white"/>
<path d="M102.066 19.3866C101.765 19.3866 101.532 19.4807 101.365 19.6689C101.201 19.8571 101.097 20.1121 101.055 20.4339H103.072C103.051 20.0909 102.946 19.8313 102.758 19.6553C102.573 19.4762 102.342 19.3866 102.066 19.3866ZM102.066 18.3166C102.479 18.3166 102.85 18.394 103.181 18.5488C103.512 18.7036 103.785 18.948 104.001 19.2819C104.195 19.5763 104.321 19.9178 104.379 20.3064C104.412 20.5341 104.426 20.8619 104.42 21.2899H101.023C101.041 21.7878 101.198 22.1368 101.492 22.3372C101.671 22.4616 101.887 22.5239 102.139 22.5239C102.406 22.5239 102.623 22.448 102.79 22.2962C102.881 22.2143 102.961 22.1004 103.031 21.9547H104.356C104.323 22.2492 104.169 22.5482 103.896 22.8517C103.471 23.3344 102.876 23.5757 102.111 23.5757C101.48 23.5757 100.923 23.3723 100.44 22.9656C99.9576 22.5588 99.7162 21.897 99.7162 20.9803C99.7162 20.1212 99.9333 19.4625 100.367 19.0041C100.805 18.5458 101.371 18.3166 102.066 18.3166Z" fill="white"/>
<path d="M107.994 18.3302C108.019 18.3302 108.038 18.3318 108.053 18.3348C108.072 18.3348 108.11 18.3363 108.167 18.3394V19.6689C108.085 19.6598 108.012 19.6538 107.949 19.6507C107.885 19.6477 107.833 19.6462 107.794 19.6462C107.272 19.6462 106.921 19.8162 106.742 20.1561C106.642 20.3474 106.592 20.6418 106.592 21.0395V23.4118H105.285V18.4486H106.524V19.3138C106.724 18.9829 106.898 18.7567 107.047 18.6353C107.29 18.4319 107.606 18.3302 107.994 18.3302Z" fill="white"/>
<path d="M116.596 17.8886H113.044V19.3138H116.304V20.4794H113.044V22.2051H116.759V23.4118H111.673V16.7001H116.596V17.8886Z" fill="white"/>
<path d="M117.26 23.4118L118.954 20.8983L117.333 18.4577H118.922L119.751 19.8966L120.561 18.4577H122.105L120.475 20.8756L122.169 23.4118H120.552L119.696 21.9228L118.836 23.4118H117.26Z" fill="white"/>
<path d="M126.358 20.9302C126.358 20.5477 126.27 20.2093 126.094 19.9148C125.921 19.6204 125.638 19.4731 125.247 19.4731C124.776 19.4731 124.453 19.6962 124.277 20.1425C124.186 20.3793 124.14 20.6798 124.14 21.044C124.14 21.6208 124.294 22.026 124.6 22.2598C124.782 22.3964 124.998 22.4647 125.247 22.4647C125.608 22.4647 125.883 22.325 126.071 22.0458C126.262 21.7665 126.358 21.3946 126.358 20.9302ZM125.62 18.3394C126.2 18.3394 126.69 18.5534 127.091 18.9814C127.495 19.4094 127.697 20.0378 127.697 20.8665C127.697 21.7407 127.499 22.407 127.105 22.8654C126.713 23.3237 126.208 23.5529 125.588 23.5529C125.194 23.5529 124.866 23.4543 124.605 23.257C124.462 23.1477 124.323 22.9883 124.186 22.7789V25.3652H122.902V18.4486H124.145V19.1817C124.285 18.9662 124.433 18.7962 124.591 18.6717C124.88 18.4501 125.223 18.3394 125.62 18.3394Z" fill="white"/>
<path d="M130.866 22.4966C131.245 22.4966 131.537 22.3615 131.74 22.0913C131.943 21.8211 132.045 21.4371 132.045 20.9393C132.045 20.4415 131.943 20.059 131.74 19.7919C131.537 19.5217 131.245 19.3866 130.866 19.3866C130.486 19.3866 130.193 19.5217 129.987 19.7919C129.784 20.059 129.682 20.4415 129.682 20.9393C129.682 21.4371 129.784 21.8211 129.987 22.0913C130.193 22.3615 130.486 22.4966 130.866 22.4966ZM133.406 20.9393C133.406 21.6678 133.197 22.2917 132.778 22.8107C132.359 23.3268 131.723 23.5848 130.87 23.5848C130.017 23.5848 129.381 23.3268 128.962 22.8107C128.543 22.2917 128.334 21.6678 128.334 20.9393C128.334 20.2229 128.543 19.6021 128.962 19.077C129.381 18.5518 130.017 18.2893 130.87 18.2893C131.723 18.2893 132.359 18.5518 132.778 19.077C133.197 19.6021 133.406 20.2229 133.406 20.9393Z" fill="white"/>
<defs>
<clipPath id="clip0_1264_1255">
<rect width="70.6055" height="24.6453" fill="white"/>
</clipPath>
</defs>
</svg>
