<svg width="54" height="54" viewBox="0 0 54 54" fill="none" xmlns="http://www.w3.org/2000/svg">
<g style="mix-blend-mode:overlay">
<path opacity="0.3" d="M5.66699 26.9999C5.66699 38.7599 15.2403 48.3333 27.0003 48.3333C38.7603 48.3333 48.3336 38.7599 48.3336 26.9999C48.3336 15.2399 38.7603 5.6666 27.0003 5.6666C15.2403 5.6666 5.66699 15.2399 5.66699 26.9999ZM37.667 26.9999L27.0003 37.6666L27.0003 29.6666L16.3337 29.6666L16.3337 24.3333L27.0003 24.3333L27.0003 16.3333L37.667 26.9999Z" fill="black"/>
<path d="M5.66695 26.9998C5.66695 15.2398 15.2403 5.6665 27.0003 5.6665C38.7603 5.6665 48.3336 15.2398 48.3336 26.9998C48.3336 38.7598 38.7603 48.3332 27.0003 48.3332C15.2403 48.3332 5.66695 38.7598 5.66695 26.9998ZM0.333619 26.9998C0.333619 41.7198 12.2803 53.6665 27.0003 53.6665C41.7203 53.6665 53.667 41.7198 53.667 26.9998C53.667 12.2798 41.7203 0.333166 27.0003 0.333165C12.2803 0.333165 0.33362 12.2798 0.333619 26.9998ZM27.0003 24.3332L16.3336 24.3332L16.3336 29.6665L27.0003 29.6665L27.0003 37.6665L37.667 26.9998L27.0003 16.3332L27.0003 24.3332Z" fill="white"/>
</g>
</svg>
