<svg width="2" height="286" viewBox="0 0 2 286" fill="none" xmlns="http://www.w3.org/2000/svg">
<path d="M0 10.2143C0 10.7666 0.447715 11.2143 1 11.2143C1.55228 11.2143 2 10.7666 2 10.2143H0ZM2 30.6429C2 30.0906 1.55228 29.6429 1 29.6429C0.447715 29.6429 0 30.0906 0 30.6429H2ZM0 51.0714C0 51.6237 0.447715 52.0714 1 52.0714C1.55228 52.0714 2 51.6237 2 51.0714H0ZM2 71.5C2 70.9477 1.55228 70.5 1 70.5C0.447715 70.5 0 70.9477 0 71.5H2ZM0 91.9286C0 92.4809 0.447715 92.9286 1 92.9286C1.55228 92.9286 2 92.4809 2 91.9286H0ZM2 112.357C2 111.805 1.55228 111.357 1 111.357C0.447715 111.357 0 111.805 0 112.357H2ZM0 132.786C0 133.338 0.447715 133.786 1 133.786C1.55228 133.786 2 133.338 2 132.786H0ZM2 153.214C2 152.662 1.55228 152.214 1 152.214C0.447715 152.214 0 152.662 0 153.214H2ZM0 173.643C0 174.195 0.447715 174.643 1 174.643C1.55228 174.643 2 174.195 2 173.643H0ZM2 194.071C2 193.519 1.55228 193.071 1 193.071C0.447715 193.071 0 193.519 0 194.071H2ZM0 214.5C0 215.052 0.447715 215.5 1 215.5C1.55228 215.5 2 215.052 2 214.5H0ZM2 234.929C2 234.376 1.55228 233.929 1 233.929C0.447715 233.929 0 234.376 0 234.929H2ZM0 255.357C0 255.909 0.447715 256.357 1 256.357C1.55228 256.357 2 255.909 2 255.357H0ZM2 275.786C2 275.233 1.55228 274.786 1 274.786C0.447715 274.786 0 275.233 0 275.786H2ZM0 0V10.2143H2V0H0ZM0 30.6429V51.0714H2V30.6429H0ZM0 71.5V91.9286H2V71.5H0ZM0 112.357V132.786H2V112.357H0ZM0 153.214V173.643H2V153.214H0ZM0 194.071V214.5H2V194.071H0ZM0 234.929V255.357H2V234.929H0ZM0 275.786V286H2V275.786H0Z" fill="black"/>
</svg>
