<svg width="2" height="426" viewBox="0 0 2 426" fill="none" xmlns="http://www.w3.org/2000/svg">
<path d="M0 9.68182C0 10.2341 0.447715 10.6818 1 10.6818C1.55228 10.6818 2 10.2341 2 9.68182H0ZM2 29.0455C2 28.4932 1.55228 28.0455 1 28.0455C0.447715 28.0455 0 28.4932 0 29.0455H2ZM0 48.4091C0 48.9614 0.447715 49.4091 1 49.4091C1.55228 49.4091 2 48.9614 2 48.4091H0ZM2 67.7727C2 67.2204 1.55228 66.7727 1 66.7727C0.447715 66.7727 0 67.2204 0 67.7727H2ZM0 87.1364C0 87.6886 0.447715 88.1364 1 88.1364C1.55228 88.1364 2 87.6886 2 87.1364H0ZM2 106.5C2 105.948 1.55228 105.5 1 105.5C0.447715 105.5 0 105.948 0 106.5H2ZM0 125.864C0 126.416 0.447715 126.864 1 126.864C1.55228 126.864 2 126.416 2 125.864H0ZM2 145.227C2 144.675 1.55228 144.227 1 144.227C0.447715 144.227 0 144.675 0 145.227H2ZM0 164.591C0 165.143 0.447715 165.591 1 165.591C1.55228 165.591 2 165.143 2 164.591H0ZM2 183.955C2 183.402 1.55228 182.955 1 182.955C0.447715 182.955 0 183.402 0 183.955H2ZM0 203.318C0 203.87 0.447715 204.318 1 204.318C1.55228 204.318 2 203.87 2 203.318H0ZM2 222.682C2 222.13 1.55228 221.682 1 221.682C0.447715 221.682 0 222.13 0 222.682H2ZM0 242.045C0 242.598 0.447715 243.045 1 243.045C1.55228 243.045 2 242.598 2 242.045H0ZM2 261.409C2 260.857 1.55228 260.409 1 260.409C0.447715 260.409 0 260.857 0 261.409H2ZM0 280.773C0 281.325 0.447715 281.773 1 281.773C1.55228 281.773 2 281.325 2 280.773H0ZM2 300.136C2 299.584 1.55228 299.136 1 299.136C0.447715 299.136 0 299.584 0 300.136H2ZM0 319.5C0 320.052 0.447715 320.5 1 320.5C1.55228 320.5 2 320.052 2 319.5H0ZM2 338.864C2 338.311 1.55228 337.864 1 337.864C0.447715 337.864 0 338.311 0 338.864H2ZM0 358.227C0 358.78 0.447715 359.227 1 359.227C1.55228 359.227 2 358.78 2 358.227H0ZM2 377.591C2 377.039 1.55228 376.591 1 376.591C0.447715 376.591 0 377.039 0 377.591H2ZM0 396.955C0 397.507 0.447715 397.955 1 397.955C1.55228 397.955 2 397.507 2 396.955H0ZM2 416.318C2 415.766 1.55228 415.318 1 415.318C0.447715 415.318 0 415.766 0 416.318H2ZM0 0V9.68182H2V0H0ZM0 29.0455V48.4091H2V29.0455H0ZM0 67.7727V87.1364H2V67.7727H0ZM0 106.5V125.864H2V106.5H0ZM0 145.227V164.591H2V145.227H0ZM0 183.955V203.318H2V183.955H0ZM0 222.682V242.045H2V222.682H0ZM0 261.409V280.773H2V261.409H0ZM0 300.136V319.5H2V300.136H0ZM0 338.864V358.227H2V338.864H0ZM0 377.591V396.955H2V377.591H0ZM0 416.318V426H2V416.318H0Z" fill="black"/>
</svg>
