<svg width="2" height="128" viewBox="0 0 2 128" fill="none" xmlns="http://www.w3.org/2000/svg">
<path d="M4.66255e-07 10.6667C4.90396e-07 11.219 0.447716 11.6667 1 11.6667C1.55229 11.6667 2 11.219 2 10.6667L4.66255e-07 10.6667ZM2 32C2 31.4477 1.55229 31 1 31C0.447717 31 1.37462e-06 31.4477 1.39876e-06 32L2 32ZM2.33127e-06 53.3333C2.35542e-06 53.8856 0.447718 54.3333 1 54.3333C1.55229 54.3333 2 53.8856 2 53.3333L2.33127e-06 53.3333ZM2 74.6667C2 74.1144 1.55229 73.6667 1 73.6667C0.447718 73.6667 3.23964e-06 74.1144 3.26378e-06 74.6667L2 74.6667ZM4.19629e-06 96C4.22044e-06 96.5523 0.447719 97 1 97C1.55229 97 2 96.5523 2 96L4.19629e-06 96ZM2.00001 117.333C2.00001 116.781 1.55229 116.333 1.00001 116.333C0.44772 116.333 5.10466e-06 116.781 5.1288e-06 117.333L2.00001 117.333ZM0 4.37114e-08L4.66255e-07 10.6667L2 10.6667L2 -4.37114e-08L0 4.37114e-08ZM1.39876e-06 32L2.33127e-06 53.3333L2 53.3333L2 32L1.39876e-06 32ZM3.26378e-06 74.6667L4.19629e-06 96L2 96L2 74.6667L3.26378e-06 74.6667ZM5.1288e-06 117.333L5.59506e-06 128L2.00001 128L2.00001 117.333L5.1288e-06 117.333Z" fill="black"/>
</svg>
