<svg width="2" height="335" viewBox="0 0 2 335" fill="none" xmlns="http://www.w3.org/2000/svg">
<path d="M4.57604e-07 10.4688C4.81745e-07 11.021 0.447716 11.4688 1 11.4688C1.55229 11.4687 2 11.021 2 10.4687L4.57604e-07 10.4688ZM2 31.4062C2 30.854 1.55229 30.4062 1 30.4062C0.447717 30.4063 1.34867e-06 30.854 1.37281e-06 31.4063L2 31.4062ZM2.28802e-06 52.3438C2.31216e-06 52.896 0.447718 53.3438 1 53.3438C1.55229 53.3437 2 52.896 2 52.3437L2.28802e-06 52.3438ZM2 73.2812C2 72.729 1.55229 72.2812 1 72.2812C0.447718 72.2813 3.17908e-06 72.729 3.20323e-06 73.2813L2 73.2812ZM4.11843e-06 94.2188C4.14257e-06 94.771 0.447719 95.2188 1 95.2188C1.55229 95.2187 2 94.771 2 94.2187L4.11843e-06 94.2188ZM2.00001 115.156C2.00001 114.604 1.55229 114.156 1 114.156C0.44772 114.156 5.0095e-06 114.604 5.03364e-06 115.156L2.00001 115.156ZM5.94885e-06 136.094C5.97299e-06 136.646 0.447721 137.094 1.00001 137.094C1.55229 137.094 2.00001 136.646 2.00001 136.094L5.94885e-06 136.094ZM2.00001 157.031C2.00001 156.479 1.55229 156.031 1.00001 156.031C0.447722 156.031 6.83991e-06 156.479 6.86405e-06 157.031L2.00001 157.031ZM7.77926e-06 177.969C7.8034e-06 178.521 0.447723 178.969 1.00001 178.969C1.55229 178.969 2.00001 178.521 2.00001 177.969L7.77926e-06 177.969ZM2.00001 198.906C2.00001 198.354 1.55229 197.906 1.00001 197.906C0.447724 197.906 8.67033e-06 198.354 8.69447e-06 198.906L2.00001 198.906ZM9.60968e-06 219.844C9.63382e-06 220.396 0.447725 220.844 1.00001 220.844C1.55229 220.844 2.00001 220.396 2.00001 219.844L9.60968e-06 219.844ZM2.00001 240.781C2.00001 240.229 1.5523 239.781 1.00001 239.781C0.447726 239.781 1.05007e-05 240.229 1.05249e-05 240.781L2.00001 240.781ZM1.14401e-05 261.719C1.14642e-05 262.271 0.447727 262.719 1.00001 262.719C1.5523 262.719 2.00001 262.271 2.00001 261.719L1.14401e-05 261.719ZM2.00001 282.656C2.00001 282.104 1.5523 281.656 1.00001 281.656C0.447728 281.656 1.23312e-05 282.104 1.23553e-05 282.656L2.00001 282.656ZM1.32705e-05 303.594C1.32946e-05 304.146 0.447729 304.594 1.00001 304.594C1.5523 304.594 2.00001 304.146 2.00001 303.594L1.32705e-05 303.594ZM2.00001 324.531C2.00001 323.979 1.5523 323.531 1.00001 323.531C0.447729 323.531 1.41616e-05 323.979 1.41857e-05 324.531L2.00001 324.531ZM0 4.37114e-08L4.57604e-07 10.4688L2 10.4687L2 -4.37114e-08L0 4.37114e-08ZM1.37281e-06 31.4063L2.28802e-06 52.3438L2 52.3437L2 31.4062L1.37281e-06 31.4063ZM3.20323e-06 73.2813L4.11843e-06 94.2188L2 94.2187L2 73.2812L3.20323e-06 73.2813ZM5.03364e-06 115.156L5.94885e-06 136.094L2.00001 136.094L2.00001 115.156L5.03364e-06 115.156ZM6.86405e-06 157.031L7.77926e-06 177.969L2.00001 177.969L2.00001 157.031L6.86405e-06 157.031ZM8.69447e-06 198.906L9.60968e-06 219.844L2.00001 219.844L2.00001 198.906L8.69447e-06 198.906ZM1.05249e-05 240.781L1.14401e-05 261.719L2.00001 261.719L2.00001 240.781L1.05249e-05 240.781ZM1.23553e-05 282.656L1.32705e-05 303.594L2.00001 303.594L2.00001 282.656L1.23553e-05 282.656ZM1.41857e-05 324.531L1.46433e-05 335L2.00001 335L2.00001 324.531L1.41857e-05 324.531Z" fill="black"/>
</svg>
