<svg width="64" height="65" viewBox="0 0 64 65" fill="none" xmlns="http://www.w3.org/2000/svg">
<rect width="64" height="64" transform="translate(0 0.5)" fill="#18A0FB" fill-opacity="0.15"/>
<path d="M41.6664 16.5H23C21.9391 16.5 20.9217 16.9214 20.1716 17.6716C19.4214 18.4217 19 19.4391 19 20.5V47.833C18.9999 47.9523 19.0319 48.0694 19.0925 48.1722C19.1532 48.2749 19.2402 48.3595 19.3447 48.4171C19.4492 48.4747 19.5672 48.5032 19.6864 48.4997C19.8057 48.4962 19.9218 48.4607 20.0227 48.397L32.3332 40.6224L44.6437 48.397C44.7501 48.4646 44.8737 48.5003 44.9997 48.4997C45.1765 48.4997 45.3461 48.4294 45.4711 48.3044C45.5961 48.1794 45.6664 48.0098 45.6664 47.833V20.5C45.6664 19.4391 45.245 18.4217 44.4948 17.6716C43.7447 16.9214 42.7273 16.5 41.6664 16.5V16.5Z" fill="#3269F9"/>
</svg>
