<svg width="2" height="268" viewBox="0 0 2 268" fill="none" xmlns="http://www.w3.org/2000/svg">
<path d="M4.1838e-07 9.57143C4.42522e-07 10.1237 0.447716 10.5714 1 10.5714C1.55229 10.5714 2 10.1237 2 9.57143L4.1838e-07 9.57143ZM2 28.7143C2 28.162 1.55229 27.7143 1 27.7143C0.447716 27.7143 1.231e-06 28.162 1.25514e-06 28.7143L2 28.7143ZM2.0919e-06 47.8571C2.11604e-06 48.4094 0.447717 48.8571 1 48.8571C1.55229 48.8571 2 48.4094 2 47.8571L2.0919e-06 47.8571ZM2 67C2 66.4477 1.55229 66 1 66C0.447718 66 2.90452e-06 66.4477 2.92866e-06 67L2 67ZM3.76542e-06 86.1429C3.78957e-06 86.6951 0.447719 87.1429 1 87.1429C1.55229 87.1429 2 86.6951 2 86.1429L3.76542e-06 86.1429ZM2 105.286C2 104.733 1.55229 104.286 1 104.286C0.44772 104.286 4.57804e-06 104.733 4.60218e-06 105.286L2 105.286ZM5.43895e-06 124.429C5.46309e-06 124.981 0.447721 125.429 1.00001 125.429C1.55229 125.429 2.00001 124.981 2.00001 124.429L5.43895e-06 124.429ZM2.00001 143.571C2.00001 143.019 1.55229 142.571 1.00001 142.571C0.447721 142.571 6.25156e-06 143.019 6.27571e-06 143.571L2.00001 143.571ZM7.11247e-06 162.714C7.13661e-06 163.267 0.447722 163.714 1.00001 163.714C1.55229 163.714 2.00001 163.267 2.00001 162.714L7.11247e-06 162.714ZM2.00001 181.857C2.00001 181.305 1.55229 180.857 1.00001 180.857C0.447723 180.857 7.92509e-06 181.305 7.94923e-06 181.857L2.00001 181.857ZM8.78599e-06 201C8.81013e-06 201.552 0.447724 202 1.00001 202C1.55229 202 2.00001 201.552 2.00001 201L8.78599e-06 201ZM2.00001 220.143C2.00001 219.591 1.55229 219.143 1.00001 219.143C0.447725 219.143 9.59861e-06 219.591 9.62275e-06 220.143L2.00001 220.143ZM1.04595e-05 239.286C1.04837e-05 239.838 0.447726 240.286 1.00001 240.286C1.5523 240.286 2.00001 239.838 2.00001 239.286L1.04595e-05 239.286ZM2.00001 258.429C2.00001 257.876 1.5523 257.429 1.00001 257.429C0.447726 257.429 1.12721e-05 257.876 1.12963e-05 258.429L2.00001 258.429ZM0 4.37114e-08L4.1838e-07 9.57143L2 9.57143L2 -4.37114e-08L0 4.37114e-08ZM1.25514e-06 28.7143L2.0919e-06 47.8571L2 47.8571L2 28.7143L1.25514e-06 28.7143ZM2.92866e-06 67L3.76542e-06 86.1429L2 86.1429L2 67L2.92866e-06 67ZM4.60218e-06 105.286L5.43895e-06 124.429L2.00001 124.429L2 105.286L4.60218e-06 105.286ZM6.27571e-06 143.571L7.11247e-06 162.714L2.00001 162.714L2.00001 143.571L6.27571e-06 143.571ZM7.94923e-06 181.857L8.78599e-06 201L2.00001 201L2.00001 181.857L7.94923e-06 181.857ZM9.62275e-06 220.143L1.04595e-05 239.286L2.00001 239.286L2.00001 220.143L9.62275e-06 220.143ZM1.12963e-05 258.429L1.17147e-05 268L2.00001 268L2.00001 258.429L1.12963e-05 258.429Z" fill="black"/>
</svg>
