<svg width="2" height="596" viewBox="0 0 2 596" fill="none" xmlns="http://www.w3.org/2000/svg">
<path d="M0 9.93333C0 10.4856 0.447715 10.9333 1 10.9333C1.55228 10.9333 2 10.4856 2 9.93333H0ZM2 29.8C2 29.2477 1.55228 28.8 1 28.8C0.447715 28.8 0 29.2477 0 29.8H2ZM0 49.6667C0 50.2189 0.447715 50.6667 1 50.6667C1.55228 50.6667 2 50.2189 2 49.6667H0ZM2 69.5333C2 68.981 1.55228 68.5333 1 68.5333C0.447715 68.5333 0 68.981 0 69.5333H2ZM0 89.4C0 89.9523 0.447715 90.4 1 90.4C1.55228 90.4 2 89.9523 2 89.4H0ZM2 109.267C2 108.714 1.55228 108.267 1 108.267C0.447715 108.267 0 108.714 0 109.267H2ZM0 129.133C0 129.686 0.447715 130.133 1 130.133C1.55228 130.133 2 129.686 2 129.133H0ZM2 149C2 148.448 1.55228 148 1 148C0.447715 148 0 148.448 0 149H2ZM0 168.867C0 169.419 0.447715 169.867 1 169.867C1.55228 169.867 2 169.419 2 168.867H0ZM2 188.733C2 188.181 1.55228 187.733 1 187.733C0.447715 187.733 0 188.181 0 188.733H2ZM0 208.6C0 209.152 0.447715 209.6 1 209.6C1.55228 209.6 2 209.152 2 208.6H0ZM2 228.467C2 227.914 1.55228 227.467 1 227.467C0.447715 227.467 0 227.914 0 228.467H2ZM0 248.333C0 248.886 0.447715 249.333 1 249.333C1.55228 249.333 2 248.886 2 248.333H0ZM2 268.2C2 267.648 1.55228 267.2 1 267.2C0.447715 267.2 0 267.648 0 268.2H2ZM0 288.067C0 288.619 0.447715 289.067 1 289.067C1.55228 289.067 2 288.619 2 288.067H0ZM2 307.933C2 307.381 1.55228 306.933 1 306.933C0.447715 306.933 0 307.381 0 307.933H2ZM0 327.8C0 328.352 0.447715 328.8 1 328.8C1.55228 328.8 2 328.352 2 327.8H0ZM2 347.667C2 347.114 1.55228 346.667 1 346.667C0.447715 346.667 0 347.114 0 347.667H2ZM0 367.533C0 368.086 0.447715 368.533 1 368.533C1.55228 368.533 2 368.086 2 367.533H0ZM2 387.4C2 386.848 1.55228 386.4 1 386.4C0.447715 386.4 0 386.848 0 387.4H2ZM0 407.267C0 407.819 0.447715 408.267 1 408.267C1.55228 408.267 2 407.819 2 407.267H0ZM2 427.133C2 426.581 1.55228 426.133 1 426.133C0.447715 426.133 0 426.581 0 427.133H2ZM0 447C0 447.552 0.447715 448 1 448C1.55228 448 2 447.552 2 447H0ZM2 466.867C2 466.314 1.55228 465.867 1 465.867C0.447715 465.867 0 466.314 0 466.867H2ZM0 486.733C0 487.286 0.447715 487.733 1 487.733C1.55228 487.733 2 487.286 2 486.733H0ZM2 506.6C2 506.048 1.55228 505.6 1 505.6C0.447715 505.6 0 506.048 0 506.6H2ZM0 526.467C0 527.019 0.447715 527.467 1 527.467C1.55228 527.467 2 527.019 2 526.467H0ZM2 546.333C2 545.781 1.55228 545.333 1 545.333C0.447715 545.333 0 545.781 0 546.333H2ZM0 566.2C0 566.752 0.447715 567.2 1 567.2C1.55228 567.2 2 566.752 2 566.2H0ZM2 586.067C2 585.514 1.55228 585.067 1 585.067C0.447715 585.067 0 585.514 0 586.067H2ZM0 0V9.93333H2V0H0ZM0 29.8V49.6667H2V29.8H0ZM0 69.5333V89.4H2V69.5333H0ZM0 109.267V129.133H2V109.267H0ZM0 149V168.867H2V149H0ZM0 188.733V208.6H2V188.733H0ZM0 228.467V248.333H2V228.467H0ZM0 268.2V288.067H2V268.2H0ZM0 307.933V327.8H2V307.933H0ZM0 347.667V367.533H2V347.667H0ZM0 387.4V407.267H2V387.4H0ZM0 427.133V447H2V427.133H0ZM0 466.867V486.733H2V466.867H0ZM0 506.6V526.467H2V506.6H0ZM0 546.333V566.2H2V546.333H0ZM0 586.067V596H2V586.067H0Z" fill="#fff"/>
</svg>
