<svg width="71" height="25" viewBox="0 0 71 25" fill="none" xmlns="http://www.w3.org/2000/svg">
<g clip-path="url(#clip0_1208_111)">
<path fill-rule="evenodd" clip-rule="evenodd" d="M33.2423 2.47183C34.5765 2.47027 35.8968 2.74637 37.121 3.28294C38.3451 3.8195 39.4469 4.60505 40.3577 5.59066L42.0886 3.84344C40.623 2.28343 38.7787 1.13866 36.7393 0.523072C34.6999 -0.0925182 32.5366 -0.157455 30.4647 0.334725C28.3927 0.826905 26.4845 1.85904 24.9298 3.32838C23.3752 4.79772 22.2283 6.65303 21.6035 8.70963C20.9787 10.7662 20.8976 12.9524 21.3684 15.0505C21.8392 17.1486 22.8454 19.0855 24.2868 20.6683C25.7283 22.2512 27.5548 23.4248 29.5845 24.0724C31.6141 24.72 33.7762 24.8189 35.8554 24.3594V24.3327H35.9729C38.188 23.8169 40.216 22.6845 41.8273 21.0637L40.0964 19.3164C38.9595 20.4564 37.5622 21.2955 36.0281 21.7598C34.494 22.224 32.8704 22.2989 31.3009 21.9779C29.7313 21.657 28.2642 20.95 27.0293 19.9195C25.7943 18.889 24.8297 17.5668 24.2205 16.0698C23.6114 14.5728 23.3766 12.9472 23.5369 11.3366C23.6972 9.72608 24.2476 8.18027 25.1395 6.83592C26.0315 5.49157 27.2374 4.3901 28.6506 3.62893C30.0639 2.86776 31.6409 2.47035 33.2423 2.47183ZM33.2423 18.5167C34.8578 18.5221 36.4096 17.8799 37.5576 16.7307L39.2022 18.3907C38.0074 19.5895 36.4857 20.4004 34.832 20.7192C33.1784 21.0381 31.4682 20.8504 29.9208 20.1803C28.3734 19.5103 27.0592 18.3883 26.1467 16.9582C25.2343 15.5282 24.7652 13.8553 24.7995 12.154C24.8339 10.4526 25.3701 8.80047 26.3395 7.40925C27.3089 6.01804 28.6673 4.95118 30.2405 4.34548C31.8137 3.73977 33.53 3.62281 35.1694 4.00959C36.8088 4.39637 38.2965 5.26927 39.4419 6.51638C38.8809 7.08344 38.3327 7.63757 37.7973 8.17879C37.114 7.41149 36.2519 6.82899 35.2892 6.48423C34.3265 6.13948 33.2939 6.04341 32.2851 6.20476C31.2764 6.36612 30.3235 6.77977 29.5132 7.40811C28.7029 8.03646 28.0607 8.85957 27.6452 9.80262C27.2297 10.7457 27.054 11.7787 27.134 12.8079C27.214 13.8371 27.5472 14.8297 28.1033 15.6956C28.6595 16.5615 29.4209 17.2731 30.3184 17.7658C31.2159 18.2585 32.221 18.5166 33.2423 18.5167Z" fill="#FBAB1B"/>
<path fill-rule="evenodd" clip-rule="evenodd" d="M67.1676 0.583984L59.2011 10.3355L58.5993 9.58183L59.0668 9.01235L59.0956 8.976L59.1579 8.89845L59.1963 8.85483L59.2514 8.78455L59.297 8.73124L59.3473 8.67066L59.3976 8.60522L59.4408 8.55434L59.5007 8.48164L59.5343 8.43801L59.6038 8.35562L59.6302 8.32169L59.7069 8.22961L59.7261 8.20538L59.81 8.10359L59.822 8.08663L59.9131 7.97516L60.0114 7.85641L60.1049 7.74009L60.1912 7.63347L60.2104 7.61166L60.2895 7.5123L60.3158 7.4808L60.3878 7.39113L60.4237 7.34994L60.4885 7.26997L60.5292 7.21908L60.5867 7.1488L60.6371 7.08579L60.6874 7.02521L60.7474 6.95493L60.7881 6.90162L60.8553 6.82165L60.8888 6.77803L60.9655 6.68594L60.9919 6.65444L61.0758 6.55266L61.0926 6.53085L61.1861 6.41695V6.40484L61.2868 6.28125L61.3899 6.15523L61.4858 6.03649L61.5002 6.01953L61.5913 5.90805L61.6128 5.8814L61.6967 5.78204L61.7279 5.74327L61.8022 5.65118L61.8406 5.60271L61.9077 5.52274L61.9557 5.46216L62.0132 5.39188L62.0707 5.32161L62.1187 5.26102L62.1858 5.18105L62.2266 5.13016L62.3009 5.03808L62.3344 4.9993L62.4183 4.89752L62.4423 4.86602L62.5358 4.75212L62.5502 4.73274L62.6533 4.60915L62.7636 4.47586L62.8739 4.34258V4.33046L62.9745 4.20929L62.9937 4.18506L63.0848 4.07359L63.1136 4.03724L63.1951 3.93546L63.2335 3.88941L63.3078 3.79975L63.3533 3.74159L63.4205 3.66162L63.4756 3.59377L63.5331 3.52349L63.5979 3.44352L63.6482 3.38294L63.7201 3.29327L63.7609 3.24481L63.8448 3.14303L63.876 3.10425L63.9695 2.99036L63.991 2.9637L64.0917 2.83769L64.1061 2.82315L64.2188 2.68502L64.3363 2.54204L64.4489 2.40391L64.4633 2.38695L64.564 2.26093L64.5904 2.23185L64.6839 2.11796L64.7175 2.07676L64.8014 1.97256L64.8445 1.91924L64.9212 1.82716L64.974 1.76173L65.0387 1.67933L65.1034 1.60421L65.1586 1.53393L65.2329 1.44427L65.2808 1.38611L65.3624 1.28433L65.4007 1.23829L65.4942 1.12439L65.523 1.09046L65.6237 0.964448L65.6452 0.940215L65.7579 0.802085V0.789968L65.8802 0.639721H62.7636L62.6725 0.751194L62.591 0.850551L62.5742 0.872361L62.4999 0.962025L62.4735 0.993528L62.4112 1.07107L62.3752 1.11469L62.3201 1.18255L62.2769 1.23586L62.2314 1.2916L62.1786 1.35703L62.1403 1.40065L62.0803 1.47577L62.0515 1.51212L61.982 1.59694L61.9628 1.62117L61.8837 1.71568L61.7974 1.82231L61.7087 1.93136L61.6296 2.03072L61.6128 2.0501L61.5409 2.13734L61.5169 2.16642L61.4546 2.24397L61.421 2.28517L61.3659 2.3506L61.3251 2.40149L61.2796 2.45722L61.2292 2.51781L61.1933 2.56385L61.1357 2.63413L61.107 2.67048L61.0399 2.75045L61.0207 2.77468L60.9464 2.86677L60.8648 2.96855L60.7785 3.07275L60.697 3.17211L60.685 3.18665L60.6131 3.27389L60.5915 3.30054L60.5292 3.37809L60.498 3.41444L60.4453 3.48229L60.4069 3.52834L60.3614 3.58407L60.3134 3.63981L60.2775 3.68585L60.2223 3.75371L60.1936 3.79006L60.1312 3.86518L60.1097 3.89184L60.0401 3.97665L60.0282 3.99362L59.949 4.08813L59.8675 4.18991L59.7884 4.28684V4.29896L59.7165 4.3862L59.6973 4.41043L59.635 4.48555L59.6086 4.51948L59.5535 4.58491L59.5175 4.62853L59.472 4.68427L59.4288 4.73758L59.3904 4.78363L59.3401 4.84663L59.3113 4.88298L59.2514 4.95568L59.2298 4.98234L59.1651 5.06231L59.1507 5.07927L59.0764 5.17136L58.9973 5.26829L58.9206 5.3628V5.37492L58.851 5.45974L58.8343 5.48155L58.7719 5.55667L58.748 5.58575L58.6928 5.6536L58.6616 5.69238L58.6137 5.74811L58.5753 5.799L58.537 5.84505L58.489 5.90321L58.4579 5.93956L58.4027 6.00741L58.3812 6.03407L58.3188 6.11161L58.3044 6.12858L58.2325 6.21582L58.1558 6.31033L58.0791 6.40484L58.0096 6.48965L57.9952 6.50662L57.8585 6.67625L57.8274 6.7126L57.7818 6.76834L57.7458 6.81438L57.7075 6.86042L57.6619 6.91616L57.6308 6.95251L57.5804 7.01552L57.5564 7.0446L57.0578 7.65043L51.4263 0.583984H48.0172L55.3341 9.76358L56.8756 11.7022L57.4749 12.4535L59.1723 14.5836L66.9518 24.3399H70.3609L60.8936 12.4656L70.6006 0.591254L67.1676 0.583984ZM45.3106 0.583984H46.8185L54.7299 10.5051L56.2714 12.4438L56.8708 13.1974L58.5681 15.3276L65.7603 24.3399H62.5142L56.9283 17.3268L51.2034 24.3327H47.7631L55.2286 15.1967L54.6292 14.443L46.5476 24.3327H43.431L44.1742 23.4239C45.7109 21.5458 48.396 18.2574 53.0901 12.5189L44.3516 1.55332L43.5797 0.583984H45.3106ZM56.9259 17.3268L56.4632 16.7428L56.9283 17.3268H56.9259Z" fill="#EF3833"/>
<path d="M19.1096 0.583984H0V3.29327H19.1096V0.583984Z" fill="#3E84F8"/>
<path d="M19.1096 21.6235H0V24.3328H19.1096V21.6235Z" fill="#3E84F8"/>
<path fill-rule="evenodd" clip-rule="evenodd" d="M0 4.27734H19.1096V6.6304H5.99347V9.49721H19.1096V11.9666H0V4.27734ZM4 7H3V10H4V7Z" fill="#3E84F8"/>
<path fill-rule="evenodd" clip-rule="evenodd" d="M0 12.9429H19.1096V15.2959H5.99347V18.1627H19.1096V20.6321H0V12.9429ZM4 15H3V18H4V15Z" fill="#3E84F8"/>
</g>
<defs>
<clipPath id="clip0_1208_111">
<rect width="70.6055" height="24.6453" fill="white"/>
</clipPath>
</defs>
</svg>
