<svg width="134" height="26" viewBox="0 0 134 26" fill="none" xmlns="http://www.w3.org/2000/svg">
<g clip-path="url(#clip0_1208_110)">
<path fill-rule="evenodd" clip-rule="evenodd" d="M33.2423 2.47183C34.5765 2.47027 35.8968 2.74637 37.121 3.28294C38.3451 3.8195 39.4469 4.60505 40.3577 5.59066L42.0886 3.84344C40.623 2.28343 38.7787 1.13866 36.7393 0.523072C34.6999 -0.0925182 32.5366 -0.157455 30.4647 0.334725C28.3927 0.826905 26.4845 1.85904 24.9298 3.32838C23.3752 4.79772 22.2283 6.65303 21.6035 8.70963C20.9787 10.7662 20.8976 12.9524 21.3684 15.0505C21.8392 17.1486 22.8454 19.0855 24.2868 20.6683C25.7283 22.2512 27.5548 23.4248 29.5845 24.0724C31.6141 24.72 33.7762 24.8189 35.8554 24.3594V24.3327H35.9729C38.188 23.8169 40.216 22.6845 41.8273 21.0637L40.0964 19.3164C38.9595 20.4564 37.5622 21.2955 36.0281 21.7598C34.494 22.224 32.8704 22.2989 31.3009 21.9779C29.7313 21.657 28.2642 20.95 27.0293 19.9195C25.7943 18.889 24.8297 17.5668 24.2205 16.0698C23.6114 14.5728 23.3766 12.9472 23.5369 11.3366C23.6972 9.72608 24.2476 8.18028 25.1395 6.83592C26.0315 5.49157 27.2374 4.3901 28.6506 3.62893C30.0639 2.86776 31.6409 2.47035 33.2423 2.47183ZM33.2423 18.5167C34.8578 18.5221 36.4096 17.8799 37.5576 16.7307L39.2022 18.3907C38.0074 19.5895 36.4857 20.4004 34.832 20.7192C33.1784 21.0381 31.4682 20.8504 29.9208 20.1803C28.3734 19.5103 27.0592 18.3883 26.1467 16.9582C25.2343 15.5282 24.7652 13.8553 24.7995 12.154C24.8339 10.4526 25.3701 8.80047 26.3395 7.40925C27.3089 6.01804 28.6673 4.95118 30.2405 4.34548C31.8137 3.73977 33.53 3.62281 35.1694 4.00959C36.8088 4.39637 38.2965 5.26927 39.4419 6.51638C38.8809 7.08344 38.3327 7.63757 37.7973 8.17879C37.114 7.41149 36.2519 6.82899 35.2892 6.48423C34.3265 6.13948 33.2939 6.04341 32.2851 6.20476C31.2764 6.36612 30.3235 6.77977 29.5132 7.40811C28.7029 8.03646 28.0607 8.85957 27.6452 9.80262C27.2297 10.7457 27.054 11.7787 27.134 12.8079C27.214 13.8371 27.5472 14.8297 28.1033 15.6956C28.6595 16.5615 29.4209 17.2731 30.3184 17.7658C31.2159 18.2585 32.221 18.5166 33.2423 18.5167Z" fill="#FBAB1B"/>
<path fill-rule="evenodd" clip-rule="evenodd" d="M67.1676 0.583984L59.2011 10.3355L58.5993 9.58183L59.0668 9.01235L59.0956 8.976L59.1579 8.89845L59.1963 8.85483L59.2514 8.78455L59.297 8.73124L59.3473 8.67066L59.3976 8.60522L59.4408 8.55434L59.5007 8.48164L59.5343 8.43802L59.6038 8.35562L59.6302 8.3217L59.7069 8.22961L59.7261 8.20538L59.81 8.10359L59.822 8.08663L59.9131 7.97516L60.0114 7.85641L60.1049 7.74009L60.1912 7.63347L60.2104 7.61166L60.2895 7.5123L60.3158 7.4808L60.3878 7.39113L60.4237 7.34994L60.4885 7.26997L60.5292 7.21908L60.5867 7.1488L60.6371 7.08579L60.6874 7.02521L60.7474 6.95493L60.7881 6.90162L60.8553 6.82165L60.8888 6.77803L60.9655 6.68594L60.9919 6.65444L61.0758 6.55266L61.0926 6.53085L61.1861 6.41695V6.40484L61.2868 6.28125L61.3899 6.15523L61.4858 6.03649L61.5002 6.01953L61.5913 5.90805L61.6128 5.8814L61.6967 5.78204L61.7279 5.74327L61.8022 5.65118L61.8406 5.60271L61.9077 5.52274L61.9557 5.46216L62.0132 5.39188L62.0707 5.32161L62.1187 5.26102L62.1858 5.18105L62.2266 5.13016L62.3009 5.03808L62.3344 4.9993L62.4183 4.89752L62.4423 4.86602L62.5358 4.75212L62.5502 4.73274L62.6533 4.60914L62.7636 4.47586L62.8739 4.34258V4.33046L62.9745 4.20929L62.9937 4.18506L63.0848 4.07359L63.1136 4.03724L63.1951 3.93546L63.2335 3.88941L63.3078 3.79975L63.3533 3.74159L63.4205 3.66162L63.4756 3.59377L63.5331 3.52349L63.5979 3.44352L63.6482 3.38294L63.7201 3.29327L63.7609 3.24481L63.8448 3.14303L63.876 3.10425L63.9695 2.99036L63.991 2.9637L64.0917 2.83769L64.1061 2.82315L64.2188 2.68502L64.3363 2.54204L64.4489 2.40391L64.4633 2.38695L64.564 2.26093L64.5904 2.23185L64.6839 2.11796L64.7175 2.07676L64.8014 1.97256L64.8445 1.91924L64.9212 1.82716L64.974 1.76173L65.0387 1.67933L65.1034 1.60421L65.1586 1.53393L65.2329 1.44427L65.2808 1.38611L65.3623 1.28433L65.4007 1.23829L65.4942 1.12439L65.523 1.09046L65.6237 0.964448L65.6452 0.940215L65.7579 0.802085V0.789968L65.8802 0.639721H62.7636L62.6725 0.751194L62.591 0.850551L62.5742 0.872361L62.4999 0.962025L62.4735 0.993528L62.4112 1.07107L62.3752 1.11469L62.3201 1.18255L62.2769 1.23586L62.2314 1.2916L62.1786 1.35703L62.1403 1.40065L62.0803 1.47577L62.0515 1.51212L61.982 1.59694L61.9628 1.62117L61.8837 1.71568L61.7974 1.82231L61.7087 1.93136L61.6296 2.03072L61.6128 2.0501L61.5409 2.13734L61.5169 2.16642L61.4546 2.24397L61.421 2.28517L61.3659 2.3506L61.3251 2.40149L61.2796 2.45722L61.2292 2.51781L61.1933 2.56385L61.1357 2.63413L61.107 2.67048L61.0399 2.75045L61.0207 2.77468L60.9464 2.86677L60.8648 2.96855L60.7785 3.07275L60.697 3.17211L60.685 3.18665L60.6131 3.27389L60.5915 3.30054L60.5292 3.37809L60.498 3.41444L60.4453 3.48229L60.4069 3.52834L60.3614 3.58407L60.3134 3.63981L60.2775 3.68585L60.2223 3.75371L60.1936 3.79006L60.1312 3.86518L60.1097 3.89184L60.0401 3.97665L60.0282 3.99362L59.949 4.08813L59.8675 4.18991L59.7884 4.28684V4.29896L59.7165 4.3862L59.6973 4.41043L59.635 4.48555L59.6086 4.51948L59.5535 4.58491L59.5175 4.62853L59.472 4.68427L59.4288 4.73758L59.3904 4.78362L59.3401 4.84663L59.3113 4.88298L59.2514 4.95568L59.2298 4.98234L59.1651 5.06231L59.1507 5.07927L59.0764 5.17136L58.9973 5.26829L58.9206 5.3628V5.37492L58.851 5.45974L58.8343 5.48155L58.7719 5.55667L58.748 5.58575L58.6928 5.6536L58.6616 5.69238L58.6137 5.74811L58.5753 5.799L58.537 5.84505L58.489 5.90321L58.4579 5.93956L58.4027 6.00741L58.3811 6.03407L58.3188 6.11161L58.3044 6.12858L58.2325 6.21582L58.1558 6.31033L58.0791 6.40484L58.0096 6.48965L57.9952 6.50662L57.8585 6.67625L57.8274 6.7126L57.7818 6.76834L57.7458 6.81438L57.7075 6.86042L57.6619 6.91616L57.6308 6.95251L57.5804 7.01552L57.5564 7.0446L57.0578 7.65043L51.4263 0.583984H48.0172L55.3341 9.76358L56.8756 11.7022L57.4749 12.4535L59.1723 14.5836L66.9518 24.3399H70.3609L60.8936 12.4656L70.6006 0.591254L67.1676 0.583984ZM45.3106 0.583984H46.8185L54.7299 10.5051L56.2714 12.4438L56.8708 13.1974L58.5681 15.3276L65.7603 24.3399H62.5143L56.9283 17.3268L51.2034 24.3327H47.7631L55.2286 15.1967L54.6292 14.443L46.5476 24.3327H43.431L44.1742 23.4239C45.7109 21.5458 48.396 18.2574 53.0901 12.5189L44.3516 1.55332L43.5797 0.583984H45.3106ZM56.9259 17.3268L56.4632 16.7428L56.9283 17.3268H56.9259Z" fill="#EF3833"/>
<path d="M19.1096 0.583984H0V3.29327H19.1096V0.583984Z" fill="#3E84F8"/>
<path d="M19.1096 21.6235H0V24.3328H19.1096V21.6235Z" fill="#3E84F8"/>
<path fill-rule="evenodd" clip-rule="evenodd" d="M0 4.27734H19.1096V6.6304H5.99347V9.49721H19.1096V11.9666H0V4.27734ZM4 7H3V10H4V7Z" fill="#3E84F8"/>
<path fill-rule="evenodd" clip-rule="evenodd" d="M0 12.9429H19.1096V15.2959H5.99347V18.1627H19.1096V20.6321H0V12.9429ZM4 15H3V18H4V15Z" fill="#3E84F8"/>
</g>
<path d="M84.9499 9.22916H81.3983V10.6544H84.6585V11.82H81.3983V13.5457H85.1138V14.7524H80.0277V8.04074H84.9499V9.22916Z" fill="black"/>
<path d="M88.8521 9.67083C89.3651 9.67083 89.784 9.80592 90.1088 10.0761C90.4366 10.3432 90.6006 10.7879 90.6006 11.4102V14.7524H89.271V11.7335C89.271 11.4724 89.2361 11.2721 89.1663 11.1325C89.0388 10.8775 88.7959 10.75 88.4377 10.75C87.9976 10.75 87.6955 10.9367 87.5316 11.31C87.4466 11.5074 87.4041 11.7593 87.4041 12.0659V14.7524H86.111V9.79833H87.3631V10.5223C87.5301 10.2673 87.6879 10.0837 87.8367 9.97136C88.1038 9.77101 88.4423 9.67083 88.8521 9.67083Z" fill="black"/>
<path d="M93.9336 13.6869C94.2372 13.6869 94.4937 13.5731 94.7031 13.3454C94.9126 13.1147 95.0173 12.7489 95.0173 12.248C95.0173 11.7775 94.9171 11.4193 94.7168 11.1734C94.5195 10.9276 94.2539 10.8046 93.92 10.8046C93.4646 10.8046 93.1504 11.0186 92.9774 11.4466C92.8864 11.6743 92.8408 11.9551 92.8408 12.289C92.8408 12.5774 92.8894 12.8339 92.9865 13.0585C93.1626 13.4774 93.4783 13.6869 93.9336 13.6869ZM93.6103 9.67083C93.8592 9.67083 94.0763 9.70878 94.2615 9.78467C94.5772 9.9152 94.8321 10.155 95.0264 10.5041V9.78922H96.2877V14.4974C96.2877 15.1379 96.1799 15.6205 95.9644 15.9453C95.5941 16.5039 94.8838 16.7832 93.8334 16.7832C93.199 16.7832 92.6814 16.6587 92.2808 16.4098C91.8801 16.1609 91.6585 15.789 91.616 15.2942H93.0275C93.0639 15.446 93.1231 15.5553 93.2051 15.6221C93.3447 15.7404 93.58 15.7996 93.9109 15.7996C94.3783 15.7996 94.691 15.6433 94.8488 15.3306C94.9521 15.1303 95.0037 14.7934 95.0037 14.3198V14.0011C94.8792 14.2136 94.7456 14.3729 94.603 14.4792C94.3449 14.6765 94.0095 14.7751 93.5967 14.7751C92.9592 14.7751 92.4492 14.552 92.0667 14.1058C91.6873 13.6565 91.4976 13.0494 91.4976 12.2845C91.4976 11.5468 91.6812 10.9276 92.0485 10.4267C92.4158 9.92279 92.9364 9.67083 93.6103 9.67083Z" fill="black"/>
<path d="M98.8376 9.19729H97.5217V7.99976H98.8376V9.19729ZM97.5217 9.78922H98.8376V14.7524H97.5217V9.78922Z" fill="black"/>
<path d="M102.849 9.67083C103.362 9.67083 103.781 9.80592 104.106 10.0761C104.434 10.3432 104.598 10.7879 104.598 11.4102V14.7524H103.268V11.7335C103.268 11.4724 103.233 11.2721 103.163 11.1325C103.036 10.8775 102.793 10.75 102.435 10.75C101.995 10.75 101.693 10.9367 101.529 11.31C101.444 11.5074 101.401 11.7593 101.401 12.0659V14.7524H100.108V9.79833H101.36V10.5223C101.527 10.2673 101.685 10.0837 101.834 9.97136C102.101 9.77101 102.439 9.67083 102.849 9.67083Z" fill="black"/>
<path d="M107.758 10.7272C107.457 10.7272 107.223 10.8213 107.056 11.0095C106.892 11.1977 106.789 11.4527 106.747 11.7745H108.764C108.743 11.4315 108.638 11.1719 108.45 10.9959C108.265 10.8168 108.034 10.7272 107.758 10.7272ZM107.758 9.65717C108.17 9.65717 108.542 9.73458 108.873 9.8894C109.204 10.0442 109.477 10.2886 109.693 10.6225C109.887 10.9169 110.013 11.2584 110.071 11.647C110.104 11.8747 110.118 12.2025 110.112 12.6305H106.715C106.733 13.1283 106.889 13.4774 107.184 13.6778C107.363 13.8022 107.578 13.8645 107.83 13.8645C108.098 13.8645 108.315 13.7886 108.482 13.6368C108.573 13.5548 108.653 13.441 108.723 13.2953H110.048C110.015 13.5897 109.861 13.8888 109.588 14.1923C109.163 14.675 108.568 14.9163 107.803 14.9163C107.172 14.9163 106.615 14.7129 106.132 14.3061C105.649 13.8994 105.408 13.2376 105.408 12.3209C105.408 11.4618 105.625 10.8031 106.059 10.3447C106.496 9.88636 107.062 9.65717 107.758 9.65717Z" fill="black"/>
<path d="M112.948 10.7272C112.648 10.7272 112.414 10.8213 112.247 11.0095C112.083 11.1977 111.98 11.4527 111.938 11.7745H113.955C113.933 11.4315 113.829 11.1719 113.641 10.9959C113.455 10.8168 113.225 10.7272 112.948 10.7272ZM112.948 9.65717C113.361 9.65717 113.733 9.73458 114.064 9.8894C114.395 10.0442 114.668 10.2886 114.884 10.6225C115.078 10.9169 115.204 11.2584 115.262 11.647C115.295 11.8747 115.309 12.2025 115.302 12.6305H111.906C111.924 13.1283 112.08 13.4774 112.375 13.6778C112.554 13.8022 112.769 13.8645 113.021 13.8645C113.288 13.8645 113.505 13.7886 113.672 13.6368C113.763 13.5548 113.844 13.441 113.914 13.2953H115.239C115.205 13.5897 115.052 13.8888 114.779 14.1923C114.354 14.675 113.759 14.9163 112.994 14.9163C112.363 14.9163 111.806 14.7129 111.323 14.3061C110.84 13.8994 110.599 13.2376 110.599 12.3209C110.599 11.4618 110.816 10.8031 111.25 10.3447C111.687 9.88636 112.253 9.65717 112.948 9.65717Z" fill="black"/>
<path d="M118.877 9.67083C118.901 9.67083 118.921 9.67235 118.936 9.67539C118.954 9.67539 118.992 9.67691 119.05 9.67994V11.0095C118.968 11.0004 118.895 10.9943 118.831 10.9913C118.768 10.9883 118.716 10.9868 118.677 10.9868C118.154 10.9868 117.804 11.1567 117.625 11.4967C117.525 11.688 117.474 11.9824 117.474 12.3801V14.7524H116.168V9.78922H117.406V10.6544C117.606 10.3235 117.781 10.0973 117.93 9.97591C118.173 9.77253 118.488 9.67083 118.877 9.67083Z" fill="black"/>
<path d="M121.149 9.19729H119.833V7.99976H121.149V9.19729ZM119.833 9.78922H121.149V14.7524H119.833V9.78922Z" fill="black"/>
<path d="M125.16 9.67083C125.673 9.67083 126.092 9.80592 126.417 10.0761C126.745 10.3432 126.909 10.7879 126.909 11.4102V14.7524H125.579V11.7335C125.579 11.4724 125.544 11.2721 125.475 11.1325C125.347 10.8775 125.104 10.75 124.746 10.75C124.306 10.75 124.004 10.9367 123.84 11.31C123.755 11.5074 123.713 11.7593 123.713 12.0659V14.7524H122.419V9.79833H123.672V10.5223C123.838 10.2673 123.996 10.0837 124.145 9.97136C124.412 9.77101 124.751 9.67083 125.16 9.67083Z" fill="black"/>
<path d="M130.242 13.6869C130.546 13.6869 130.802 13.5731 131.012 13.3454C131.221 13.1147 131.326 12.7489 131.326 12.248C131.326 11.7775 131.226 11.4193 131.025 11.1734C130.828 10.9276 130.562 10.8046 130.228 10.8046C129.773 10.8046 129.459 11.0186 129.286 11.4466C129.195 11.6743 129.149 11.9551 129.149 12.289C129.149 12.5774 129.198 12.8339 129.295 13.0585C129.471 13.4774 129.787 13.6869 130.242 13.6869ZM129.919 9.67083C130.168 9.67083 130.385 9.70878 130.57 9.78467C130.886 9.9152 131.141 10.155 131.335 10.5041V9.78922H132.596V14.4974C132.596 15.1379 132.488 15.6205 132.273 15.9453C131.902 16.5039 131.192 16.7832 130.142 16.7832C129.507 16.7832 128.99 16.6587 128.589 16.4098C128.188 16.1609 127.967 15.789 127.924 15.2942H129.336C129.372 15.446 129.432 15.5553 129.513 15.6221C129.653 15.7404 129.888 15.7996 130.219 15.7996C130.687 15.7996 130.999 15.6433 131.157 15.3306C131.26 15.1303 131.312 14.7934 131.312 14.3198V14.0011C131.188 14.2136 131.054 14.3729 130.911 14.4792C130.653 14.6765 130.318 14.7751 129.905 14.7751C129.268 14.7751 128.758 14.552 128.375 14.1058C127.996 13.6565 127.806 13.0494 127.806 12.2845C127.806 11.5468 127.99 10.9276 128.357 10.4267C128.724 9.92279 129.245 9.67083 129.919 9.67083Z" fill="black"/>
<path d="M79.1671 20.1104C79.1671 18.9386 79.4813 18.0356 80.1097 17.4011C80.6561 16.8486 81.3512 16.5724 82.1951 16.5724C83.3243 16.5724 84.15 16.9427 84.6721 17.6834C84.9605 18.0993 85.1153 18.5167 85.1366 18.9356H83.7341C83.6431 18.6138 83.5262 18.371 83.3835 18.2071C83.1285 17.9156 82.7506 17.7699 82.2497 17.7699C81.7398 17.7699 81.3375 17.9764 81.0431 18.3892C80.7486 18.799 80.6014 19.3803 80.6014 20.1331C80.6014 20.8859 80.7562 21.4506 81.0659 21.827C81.3785 22.2003 81.7747 22.387 82.2543 22.387C82.746 22.387 83.1209 22.2261 83.379 21.9044C83.5216 21.7314 83.64 21.4718 83.7341 21.1258H85.1229C85.0015 21.8573 84.6903 22.4523 84.1895 22.9107C83.6916 23.369 83.0526 23.5982 82.2725 23.5982C81.3072 23.5982 80.5483 23.2886 79.9958 22.6693C79.4434 22.0471 79.1671 21.1941 79.1671 20.1104Z" fill="black"/>
<path d="M88.8293 20.9983C88.7474 21.0499 88.6639 21.0924 88.5789 21.1258C88.4969 21.1561 88.3831 21.1849 88.2374 21.2123L87.946 21.2669C87.6728 21.3155 87.477 21.3747 87.3586 21.4445C87.1582 21.5629 87.0581 21.7465 87.0581 21.9954C87.0581 22.217 87.1188 22.3779 87.2402 22.4781C87.3647 22.5752 87.5149 22.6238 87.691 22.6238C87.9703 22.6238 88.2268 22.5418 88.4605 22.3779C88.6973 22.214 88.8202 21.915 88.8293 21.4809V20.9983ZM88.0416 20.3927C88.2814 20.3623 88.4529 20.3244 88.5561 20.2788C88.7413 20.1999 88.8339 20.077 88.8339 19.91C88.8339 19.7066 88.7625 19.567 88.6199 19.4911C88.4802 19.4122 88.2738 19.3727 88.0006 19.3727C87.694 19.3727 87.477 19.4486 87.3495 19.6004C87.2584 19.7127 87.1977 19.8645 87.1673 20.0557H85.9152C85.9425 19.6216 86.0639 19.265 86.2794 18.9857C86.6225 18.5486 87.2114 18.33 88.0461 18.33C88.5895 18.33 89.0722 18.4378 89.4941 18.6533C89.916 18.8688 90.127 19.2756 90.127 19.8736V22.1503C90.127 22.3081 90.1301 22.4993 90.1361 22.724C90.1452 22.894 90.171 23.0093 90.2135 23.07C90.256 23.1307 90.3198 23.1808 90.4048 23.2203V23.4115H88.9932C88.9538 23.3114 88.9265 23.2173 88.9113 23.1292C88.8961 23.0412 88.884 22.941 88.8749 22.8287C88.6958 23.023 88.4893 23.1884 88.2556 23.325C87.9763 23.4859 87.6606 23.5664 87.3085 23.5664C86.8592 23.5664 86.4874 23.4389 86.1929 23.1839C85.9015 22.9258 85.7558 22.5616 85.7558 22.0911C85.7558 21.4809 85.9911 21.0392 86.4616 20.766C86.7196 20.6173 87.099 20.5111 87.5999 20.4473L88.0416 20.3927Z" fill="black"/>
<path d="M93.9792 18.33C94.0034 18.33 94.0232 18.3315 94.0383 18.3346C94.0566 18.3346 94.0945 18.3361 94.1522 18.3391V19.6687C94.0702 19.6596 93.9974 19.6535 93.9336 19.6505C93.8699 19.6474 93.8183 19.6459 93.7788 19.6459C93.2567 19.6459 92.9061 19.8159 92.727 20.1559C92.6268 20.3471 92.5767 20.6416 92.5767 21.0392V23.4115H91.2699V18.4484H92.5084V19.3135C92.7088 18.9826 92.8833 18.7565 93.0321 18.6351C93.2749 18.4317 93.5906 18.33 93.9792 18.33Z" fill="black"/>
<path d="M96.8751 19.3864C96.5746 19.3864 96.3408 19.4805 96.1739 19.6687C96.0099 19.8569 95.9067 20.1119 95.8642 20.4336H97.8814C97.8601 20.0906 97.7554 19.8311 97.5672 19.655C97.382 19.4759 97.1513 19.3864 96.8751 19.3864ZM96.8751 18.3163C97.2879 18.3163 97.6598 18.3937 97.9907 18.5486C98.3215 18.7034 98.5947 18.9477 98.8103 19.2817C99.0045 19.5761 99.1305 19.9176 99.1882 20.3062C99.2216 20.5338 99.2352 20.8617 99.2292 21.2897H95.8324C95.8506 21.7875 96.0069 22.1366 96.3014 22.3369C96.4805 22.4614 96.696 22.5236 96.9479 22.5236C97.2151 22.5236 97.4321 22.4477 97.5991 22.296C97.6901 22.214 97.7706 22.1002 97.8404 21.9545H99.1654C99.132 22.2489 98.9787 22.5479 98.7055 22.8515C98.2806 23.3341 97.6856 23.5755 96.9206 23.5755C96.2892 23.5755 95.7322 23.3721 95.2495 22.9653C94.7669 22.5585 94.5256 21.8968 94.5256 20.98C94.5256 20.121 94.7426 19.4623 95.1767 19.0039C95.6138 18.5455 96.1799 18.3163 96.8751 18.3163Z" fill="black"/>
<path d="M102.066 19.3864C101.765 19.3864 101.532 19.4805 101.365 19.6687C101.201 19.8569 101.098 20.1119 101.055 20.4336H103.072C103.051 20.0906 102.946 19.8311 102.758 19.655C102.573 19.4759 102.342 19.3864 102.066 19.3864ZM102.066 18.3163C102.479 18.3163 102.851 18.3937 103.181 18.5486C103.512 18.7034 103.786 18.9477 104.001 19.2817C104.195 19.5761 104.321 19.9176 104.379 20.3062C104.412 20.5338 104.426 20.8617 104.42 21.2897H101.023C101.041 21.7875 101.198 22.1366 101.492 22.3369C101.671 22.4614 101.887 22.5236 102.139 22.5236C102.406 22.5236 102.623 22.4477 102.79 22.296C102.881 22.214 102.961 22.1002 103.031 21.9545H104.356C104.323 22.2489 104.17 22.5479 103.896 22.8515C103.471 23.3341 102.876 23.5755 102.111 23.5755C101.48 23.5755 100.923 23.3721 100.44 22.9653C99.9577 22.5585 99.7164 21.8968 99.7164 20.98C99.7164 20.121 99.9334 19.4623 100.368 19.0039C100.805 18.5455 101.371 18.3163 102.066 18.3163Z" fill="black"/>
<path d="M107.994 18.33C108.019 18.33 108.038 18.3315 108.054 18.3346C108.072 18.3346 108.11 18.3361 108.167 18.3391V19.6687C108.085 19.6596 108.013 19.6535 107.949 19.6505C107.885 19.6474 107.833 19.6459 107.794 19.6459C107.272 19.6459 106.921 19.8159 106.742 20.1559C106.642 20.3471 106.592 20.6416 106.592 21.0392V23.4115H105.285V18.4484H106.524V19.3135C106.724 18.9826 106.899 18.7565 107.047 18.6351C107.29 18.4317 107.606 18.33 107.994 18.33Z" fill="black"/>
<path d="M116.596 17.8883H113.044V19.3135H116.304V20.4792H113.044V22.2049H116.76V23.4115H111.673V16.6999H116.596V17.8883Z" fill="black"/>
<path d="M117.26 23.4115L118.954 20.8981L117.333 18.4575H118.922L119.751 19.8964L120.562 18.4575H122.105L120.475 20.8753L122.169 23.4115H120.552L119.696 21.9226L118.836 23.4115H117.26Z" fill="black"/>
<path d="M126.358 20.93C126.358 20.5475 126.27 20.209 126.094 19.9146C125.921 19.6201 125.639 19.4729 125.247 19.4729C124.776 19.4729 124.453 19.696 124.277 20.1422C124.186 20.379 124.141 20.6795 124.141 21.0438C124.141 21.6206 124.294 22.0258 124.6 22.2595C124.783 22.3961 124.998 22.4644 125.247 22.4644C125.608 22.4644 125.883 22.3248 126.071 22.0455C126.262 21.7663 126.358 21.3944 126.358 20.93ZM125.62 18.3391C126.2 18.3391 126.69 18.5531 127.091 18.9811C127.495 19.4091 127.697 20.0375 127.697 20.8662C127.697 21.7405 127.499 22.4068 127.105 22.8651C126.713 23.3235 126.208 23.5527 125.588 23.5527C125.194 23.5527 124.866 23.454 124.605 23.2567C124.462 23.1474 124.323 22.9881 124.186 22.7786V25.3649H122.902V18.4484H124.145V19.1815C124.285 18.966 124.433 18.796 124.591 18.6715C124.88 18.4499 125.223 18.3391 125.62 18.3391Z" fill="black"/>
<path d="M130.866 22.4963C131.245 22.4963 131.537 22.3612 131.74 22.0911C131.943 21.8209 132.045 21.4369 132.045 20.9391C132.045 20.4412 131.943 20.0588 131.74 19.7916C131.537 19.5215 131.245 19.3864 130.866 19.3864C130.486 19.3864 130.193 19.5215 129.987 19.7916C129.784 20.0588 129.682 20.4412 129.682 20.9391C129.682 21.4369 129.784 21.8209 129.987 22.0911C130.193 22.3612 130.486 22.4963 130.866 22.4963ZM133.407 20.9391C133.407 21.6676 133.197 22.2914 132.778 22.8105C132.359 23.3265 131.723 23.5846 130.87 23.5846C130.017 23.5846 129.381 23.3265 128.963 22.8105C128.544 22.2914 128.334 21.6676 128.334 20.9391C128.334 20.2227 128.544 19.6019 128.963 19.0767C129.381 18.5516 130.017 18.289 130.87 18.289C131.723 18.289 132.359 18.5516 132.778 19.0767C133.197 19.6019 133.407 20.2227 133.407 20.9391Z" fill="black"/>
<defs>
<clipPath id="clip0_1208_110">
<rect width="70.6055" height="24.6453" fill="white"/>
</clipPath>
</defs>
</svg>
