<svg width="64" height="65" viewBox="0 0 64 65" fill="none" xmlns="http://www.w3.org/2000/svg">
<path d="M0 0.5H48C56.8366 0.5 64 7.66344 64 16.5V64.5H16C7.16344 64.5 0 57.3366 0 48.5V0.5Z" fill="#18A0FB" fill-opacity="0.15"/>
<path d="M19.2 22.9H16V45.3C16 47.06 17.44 48.5 19.2 48.5H41.6V45.3H19.2V22.9ZM44.8 16.5H25.6C23.84 16.5 22.4 17.94 22.4 19.7V38.9C22.4 40.66 23.84 42.1 25.6 42.1H44.8C46.56 42.1 48 40.66 48 38.9V19.7C48 17.94 46.56 16.5 44.8 16.5ZM43.2 30.9H27.2V27.7H43.2V30.9ZM36.8 37.3H27.2V34.1H36.8V37.3ZM43.2 24.5H27.2V21.3H43.2V24.5Z" fill="#3269F9"/>
</svg>
