<svg width="54" height="54" viewBox="0 0 54 54" fill="none" xmlns="http://www.w3.org/2000/svg">
<path opacity="0.3" d="M48.3333 27.0001C48.3333 15.2401 38.7599 5.66675 26.9999 5.66675C15.2399 5.66675 5.6666 15.2401 5.6666 27.0001C5.6666 38.7601 15.2399 48.3334 26.9999 48.3334C38.7599 48.3334 48.3333 38.7601 48.3333 27.0001ZM16.3333 27.0001L26.9999 16.3334L26.9999 24.3334L37.6666 24.3334L37.6666 29.6667L26.9999 29.6667L26.9999 37.6667L16.3333 27.0001Z" fill="black"/>
<path d="M48.3332 27.0002C48.3332 38.7602 38.7598 48.3335 26.9998 48.3335C15.2398 48.3335 5.66649 38.7602 5.66649 27.0002C5.66649 15.2402 15.2398 5.66683 26.9998 5.66683C38.7598 5.66683 48.3332 15.2402 48.3332 27.0002ZM53.6665 27.0002C53.6665 12.2802 41.7198 0.333496 26.9998 0.333495C12.2798 0.333494 0.33316 12.2802 0.333159 27.0002C0.333159 41.7202 12.2798 53.6668 26.9998 53.6668C41.7198 53.6668 53.6665 41.7202 53.6665 27.0002ZM26.9998 29.6668L37.6665 29.6668L37.6665 24.3335L26.9998 24.3335L26.9998 16.3335L16.3332 27.0002L26.9998 37.6668L26.9998 29.6668Z" fill="white"/>
</svg>
