<svg width="64" height="65" viewBox="0 0 64 65" fill="none" xmlns="http://www.w3.org/2000/svg">
<path d="M0 0.5H48C56.8366 0.5 64 7.66344 64 16.5V64.5H16C7.16344 64.5 0 57.3366 0 48.5V0.5Z" fill="#ED4239" fill-opacity="0.15"/>
<path d="M47.5731 22.7441L41.7548 16.9259C41.4821 16.6532 41.1122 16.5 40.7265 16.5C40.3408 16.5 39.9709 16.6532 39.6981 16.9259L35.6355 20.9885L43.5105 28.8634L47.5731 24.8009C47.8458 24.5281 47.9989 24.1582 47.9989 23.7725C47.9989 23.3868 47.8458 23.0169 47.5731 22.7441Z" fill="#ED4239"/>
<path d="M33.5787 23.0454L19.3342 37.2899C19.1748 37.4497 19.0548 37.6444 18.9837 37.8586L16.0745 46.586C16.0017 46.8046 15.9819 47.0373 16.0166 47.265C16.0514 47.4927 16.1397 47.7089 16.2743 47.8958C16.409 48.0827 16.5861 48.235 16.7911 48.3401C16.9961 48.4451 17.2231 48.5 17.4535 48.5002C17.6098 48.5002 17.765 48.4746 17.9131 48.4246L26.6405 45.5154C26.8547 45.4443 27.0494 45.3243 27.2092 45.1649L41.4537 30.9204L33.5787 23.0454Z" fill="#ED4239"/>
</svg>
