<svg width="64" height="64" viewBox="0 0 64 64" fill="none" xmlns="http://www.w3.org/2000/svg">
<rect width="64" height="64" fill="#ED4239" fill-opacity="0.15"/>
<path d="M41.6664 16H23C21.9391 16 20.9217 16.4214 20.1716 17.1716C19.4214 17.9217 19 18.9391 19 20V47.333C18.9999 47.4523 19.0319 47.5694 19.0925 47.6722C19.1532 47.7749 19.2402 47.8595 19.3447 47.9171C19.4492 47.9747 19.5672 48.0032 19.6864 47.9997C19.8057 47.9962 19.9218 47.9607 20.0227 47.897L32.3332 40.1224L44.6437 47.897C44.7501 47.9646 44.8737 48.0003 44.9997 47.9997C45.1765 47.9997 45.3461 47.9294 45.4711 47.8044C45.5961 47.6794 45.6664 47.5098 45.6664 47.333V20C45.6664 18.9391 45.245 17.9217 44.4948 17.1716C43.7447 16.4214 42.7273 16 41.6664 16V16Z" fill="#ED4239"/>
</svg>
