<svg width="2" height="160" viewBox="0 0 2 160" fill="none" xmlns="http://www.w3.org/2000/svg">
<path d="M4.37114e-07 10C4.61255e-07 10.5523 0.447716 11 1 11C1.55229 11 2 10.5523 2 10L4.37114e-07 10ZM2 30C2 29.4477 1.55229 29 1 29C0.447716 29 1.2872e-06 29.4477 1.31134e-06 30L2 30ZM2.18557e-06 50C2.20971e-06 50.5523 0.447717 51 1 51C1.55229 51 2 50.5523 2 50L2.18557e-06 50ZM2 70C2 69.4477 1.55229 69 1 69C0.447718 69 3.03566e-06 69.4477 3.0598e-06 70L2 70ZM3.93402e-06 90C3.95817e-06 90.5523 0.447719 91 1 91C1.55229 91 2 90.5523 2 90L3.93402e-06 90ZM2 110C2 109.448 1.55229 109 1 109C0.44772 109 4.78411e-06 109.448 4.80825e-06 110L2 110ZM5.68248e-06 130C5.70662e-06 130.552 0.447721 131 1.00001 131C1.55229 131 2.00001 130.552 2.00001 130L5.68248e-06 130ZM2.00001 150C2.00001 149.448 1.55229 149 1.00001 149C0.447722 149 6.53257e-06 149.448 6.55671e-06 150L2.00001 150ZM7.43094e-06 170C7.45508e-06 170.552 0.447723 171 1.00001 171C1.55229 171 2.00001 170.552 2.00001 170L7.43094e-06 170ZM2.00001 190C2.00001 189.448 1.55229 189 1.00001 189C0.447723 189 8.28102e-06 189.448 8.30516e-06 190L2.00001 190ZM0 4.37114e-08L4.37114e-07 10L2 10L2 -4.37114e-08L0 4.37114e-08ZM1.31134e-06 30L2.18557e-06 50L2 50L2 30L1.31134e-06 30ZM3.0598e-06 70L3.93402e-06 90L2 90L2 70L3.0598e-06 70ZM4.80825e-06 110L5.68248e-06 130L2.00001 130L2 110L4.80825e-06 110ZM6.55671e-06 150L7.43094e-06 170L2.00001 170L2.00001 150L6.55671e-06 150ZM8.30516e-06 190L8.74228e-06 200L2.00001 200L2.00001 190L8.30516e-06 190Z" fill="black"/>
</svg>
