<svg width="64" height="65" viewBox="0 0 64 65" fill="none" xmlns="http://www.w3.org/2000/svg">
<path d="M0 0.5H48C56.8366 0.5 64 7.66344 64 16.5V64.5H16C7.16344 64.5 0 57.3366 0 48.5V0.5Z" fill="#FFBD08" fill-opacity="0.15"/>
<path d="M33.7621 31.8047C34.9147 31.8047 35.849 30.8703 35.849 29.7178C35.849 28.5652 34.9147 27.6309 33.7621 27.6309C32.6095 27.6309 31.6752 28.5652 31.6752 29.7178C31.6752 30.8703 32.6095 31.8047 33.7621 31.8047Z" fill="#FFBD08"/>
<path d="M33.2522 16.5104C26.0997 16.7789 20.545 22.8852 20.545 30.0426V30.947L18.1471 35.7406C18.0653 35.904 18.0165 36.082 18.0035 36.2643C17.9905 36.4465 18.0135 36.6296 18.0713 36.803C18.129 36.9764 18.2204 37.1367 18.3401 37.2748C18.4598 37.4128 18.6056 37.526 18.769 37.6077L20.545 38.4953V42.2393C20.545 43.1617 20.9115 44.0464 21.5637 44.6987C22.216 45.351 23.1007 45.7174 24.0232 45.7174H28.8927V48.5H42.8054V39.3378C44.77 37.4964 46.1246 35.0985 46.6878 32.4655C47.2509 29.8325 46.9957 27.0903 45.9562 24.6065C44.9167 22.1227 43.1427 20.016 40.8721 18.5689C38.6014 17.1219 35.9427 16.4036 33.2522 16.5104ZM40.7185 30.4134C40.7187 30.5016 40.6854 30.5866 40.6254 30.6511C40.5653 30.7157 40.483 30.7551 40.395 30.7612L38.482 30.9004C38.3664 31.3655 38.1824 31.811 37.936 32.2221L39.1881 33.6718C39.2454 33.7383 39.2755 33.824 39.2723 33.9117C39.2691 33.9994 39.2328 34.0827 39.1707 34.1448L38.1871 35.1284C38.125 35.1905 38.0417 35.2268 37.954 35.23C37.8662 35.2332 37.7805 35.2032 37.714 35.1458L36.2664 33.8916C35.8555 34.139 35.41 34.324 34.9447 34.4405L34.8056 36.3535C34.7987 36.4409 34.7591 36.5226 34.6946 36.5821C34.6301 36.6415 34.5455 36.6744 34.4578 36.6742H33.0665C32.9783 36.6744 32.8933 36.6411 32.8288 36.581C32.7642 36.521 32.7248 36.4386 32.7187 36.3507L32.5795 34.4377C32.1144 34.3221 31.6689 34.138 31.2578 33.8916L29.8081 35.1438C29.7416 35.2011 29.6559 35.2312 29.5682 35.2279C29.4805 35.2247 29.3972 35.1884 29.3351 35.1264L28.3515 34.1427C28.2894 34.0806 28.2531 33.9974 28.2499 33.9096C28.2467 33.8219 28.2767 33.7362 28.3341 33.6697L29.5883 32.2221C29.3409 31.8111 29.1559 31.3657 29.0394 30.9004L27.1264 30.7612C27.039 30.7544 26.9573 30.7147 26.8978 30.6502C26.8384 30.5857 26.8055 30.5011 26.8057 30.4134V29.0221C26.8055 28.934 26.8388 28.849 26.8989 28.7844C26.9589 28.7198 27.0413 28.6805 27.1292 28.6743L29.0422 28.5352C29.1576 28.07 29.3417 27.6245 29.5883 27.2135L28.3362 25.7645C28.2786 25.6979 28.2484 25.6121 28.2516 25.5242C28.2549 25.4363 28.2913 25.3529 28.3535 25.2907L29.3372 24.3071C29.3993 24.245 29.4825 24.2088 29.5703 24.2055C29.658 24.2023 29.7437 24.2324 29.8102 24.2897L31.2578 25.5439C31.6688 25.2966 32.1142 25.1116 32.5795 24.9951L32.7187 23.0814C32.7257 22.994 32.7654 22.9126 32.8299 22.8532C32.8944 22.7939 32.9789 22.7611 33.0665 22.7614H34.4578C34.5458 22.7612 34.6307 22.7944 34.6953 22.8543C34.7598 22.9142 34.7992 22.9963 34.8056 23.0842L34.9447 24.9979C35.4099 25.1135 35.8553 25.2976 36.2664 25.5439L37.7161 24.2918C37.7826 24.2345 37.8683 24.2044 37.9561 24.2076C38.0438 24.2108 38.1271 24.2471 38.1892 24.3092L39.1728 25.2928C39.2351 25.355 39.2715 25.4384 39.2747 25.5263C39.2779 25.6142 39.2477 25.7 39.1902 25.7666L37.936 27.2135C38.1835 27.6243 38.3685 28.0698 38.4848 28.5352L40.3978 28.6743C40.4853 28.6812 40.5669 28.7208 40.6264 28.7853C40.6859 28.8498 40.7188 28.9344 40.7185 29.0221V30.4134Z" fill="#FFBD08"/>
</svg>
