<svg width="2" height="356" viewBox="0 0 2 356" fill="none" xmlns="http://www.w3.org/2000/svg">
<path d="M-4.32257e-07 9.88889C-4.56398e-07 10.4412 0.447715 10.8889 1 10.8889C1.55228 10.8889 2 10.4412 2 9.88889L-4.32257e-07 9.88889ZM2 29.6667C2 29.1144 1.55228 28.6667 0.999999 28.6667C0.447714 28.6667 -1.27263e-06 29.1144 -1.29677e-06 29.6667L2 29.6667ZM-2.16129e-06 49.4444C-2.18543e-06 49.9967 0.447713 50.4444 0.999998 50.4444C1.55228 50.4444 2 49.9967 2 49.4444L-2.16129e-06 49.4444ZM2 69.2222C2 68.6699 1.55228 68.2222 0.999997 68.2222C0.447712 68.2222 -3.00166e-06 68.6699 -3.0258e-06 69.2222L2 69.2222ZM-3.89031e-06 89C-3.91446e-06 89.5523 0.447711 90 0.999996 90C1.55228 90 2 89.5523 2 89L-3.89031e-06 89ZM2 108.778C2 108.226 1.55228 107.778 0.999995 107.778C0.447711 107.778 -4.73069e-06 108.226 -4.75483e-06 108.778L2 108.778ZM-5.61934e-06 128.556C-5.64348e-06 129.108 0.44771 129.556 0.999994 129.556C1.55228 129.556 1.99999 129.108 1.99999 128.556L-5.61934e-06 128.556ZM1.99999 148.333C1.99999 147.781 1.55228 147.333 0.999994 147.333C0.447709 147.333 -6.45972e-06 147.781 -6.48386e-06 148.333L1.99999 148.333ZM-7.34837e-06 168.111C-7.37251e-06 168.663 0.447708 169.111 0.999993 169.111C1.55228 169.111 1.99999 168.663 1.99999 168.111L-7.34837e-06 168.111ZM1.99999 187.889C1.99999 187.337 1.55228 186.889 0.999992 186.889C0.447707 186.889 -8.18874e-06 187.337 -8.21288e-06 187.889L1.99999 187.889ZM-9.0774e-06 207.667C-9.10154e-06 208.219 0.447706 208.667 0.999991 208.667C1.55228 208.667 1.99999 208.219 1.99999 207.667L-9.0774e-06 207.667ZM1.99999 227.444C1.99999 226.892 1.55227 226.444 0.99999 226.444C0.447705 226.444 -9.91777e-06 226.892 -9.94191e-06 227.444L1.99999 227.444ZM-1.08064e-05 247.222C-1.08306e-05 247.774 0.447704 248.222 0.999989 248.222C1.55227 248.222 1.99999 247.774 1.99999 247.222L-1.08064e-05 247.222ZM1.99999 267C1.99999 266.448 1.55227 266 0.999988 266C0.447704 266 -1.16468e-05 266.448 -1.16709e-05 267L1.99999 267ZM-1.25355e-05 286.778C-1.25596e-05 287.33 0.447703 287.778 0.999987 287.778C1.55227 287.778 1.99999 287.33 1.99999 286.778L-1.25355e-05 286.778ZM1.99999 306.556C1.99999 306.003 1.55227 305.556 0.999987 305.556C0.447702 305.556 -1.33758e-05 306.003 -1.34e-05 306.556L1.99999 306.556ZM-1.42645e-05 326.333C-1.42886e-05 326.886 0.447701 327.333 0.999986 327.333C1.55227 327.333 1.99999 326.886 1.99999 326.333L-1.42645e-05 326.333ZM1.99998 346.111C1.99998 345.559 1.55227 345.111 0.999985 345.111C0.4477 345.111 -1.51049e-05 345.559 -1.5129e-05 346.111L1.99998 346.111ZM0 -4.37114e-08L-4.32257e-07 9.88889L2 9.88889L2 4.37114e-08L0 -4.37114e-08ZM-1.29677e-06 29.6667L-2.16129e-06 49.4444L2 49.4444L2 29.6667L-1.29677e-06 29.6667ZM-3.0258e-06 69.2222L-3.89031e-06 89L2 89L2 69.2222L-3.0258e-06 69.2222ZM-4.75483e-06 108.778L-5.61934e-06 128.556L1.99999 128.556L2 108.778L-4.75483e-06 108.778ZM-6.48386e-06 148.333L-7.34837e-06 168.111L1.99999 168.111L1.99999 148.333L-6.48386e-06 148.333ZM-8.21288e-06 187.889L-9.0774e-06 207.667L1.99999 207.667L1.99999 187.889L-8.21288e-06 187.889ZM-9.94191e-06 227.444L-1.08064e-05 247.222L1.99999 247.222L1.99999 227.444L-9.94191e-06 227.444ZM-1.16709e-05 267L-1.25355e-05 286.778L1.99999 286.778L1.99999 267L-1.16709e-05 267ZM-1.34e-05 306.556L-1.42645e-05 326.333L1.99999 326.333L1.99999 306.556L-1.34e-05 306.556ZM-1.5129e-05 346.111L-1.55613e-05 356L1.99998 356L1.99998 346.111L-1.5129e-05 346.111Z" fill="black"/>
</svg>
